<svg width="135" height="112" viewBox="0 0 135 112" fill="none" xmlns="http://www.w3.org/2000/svg">
<rect width="135" height="112" rx="8" fill="#97CAD1" fill-opacity="0.08"/>
<g clip-path="url(#clip0_2_2348)">
<g clip-path="url(#clip1_2_2348)">
<path fill-rule="evenodd" clip-rule="evenodd" d="M58.1777 39.2594C58.6328 39.4689 59.0963 39.6635 59.5675 39.8423C62.0003 40.7656 64.6387 41.2711 67.3953 41.2711C70.1528 41.2711 72.7922 40.7652 75.2257 39.8413C75.6968 39.6624 76.1602 39.4678 76.6153 39.2582L75.9029 37.9347L74.9662 36.1945L74.1895 34.7513L68.2486 23.7142L67.3968 22.1318L66.5451 23.7142L58.8902 37.9358L58.1777 39.2594ZM67.3968 25.2967L72.7784 35.2946C71.0875 35.8599 69.278 36.1661 67.397 36.1661C65.5159 36.1661 63.7063 35.8598 62.0154 35.2945L67.3968 25.2967ZM67.397 37.7997C65.2355 37.7997 63.1601 37.4309 61.2304 36.7528L60.285 38.5092C62.4994 39.3251 64.8939 39.7711 67.3953 39.7711C69.8977 39.7711 72.2931 39.3248 74.5081 38.5082L73.5633 36.7529C71.6336 37.4309 69.5584 37.7997 67.397 37.7997ZM69.0003 34.0002C69.5526 34.0002 70.0003 33.5525 70.0003 33.0002C70.0003 32.4479 69.5526 32.0002 69.0003 32.0002C68.448 32.0002 68.0002 32.4479 68.0002 33.0002C68.0002 33.5525 68.448 34.0002 69.0003 34.0002ZM66.687 34.0002C66.687 34.5525 66.2393 35.0002 65.687 35.0002C65.1347 35.0002 64.687 34.5525 64.687 34.0002C64.687 33.4479 65.1347 33.0002 65.687 33.0002C66.2393 33.0002 66.687 33.4479 66.687 34.0002ZM67.3259 31.0002C67.8782 31.0002 68.326 30.5525 68.326 30.0002C68.326 29.448 67.8782 29.0002 67.3259 29.0002C66.7736 29.0002 66.3259 29.448 66.3259 30.0002C66.3259 30.5525 66.7736 31.0002 67.3259 31.0002Z" fill="#7A1D47"/>
</g>
</g>
<path d="M52.7876 62.0703C52.7876 61.8359 52.7511 61.6276 52.6782 61.4453C52.6105 61.263 52.4881 61.0964 52.311 60.9453C52.1339 60.7943 51.8839 60.6484 51.561 60.5078C51.2433 60.362 50.8371 60.2135 50.3423 60.0625C49.8006 59.8958 49.3006 59.7109 48.8423 59.5078C48.3891 59.2995 47.9933 59.0599 47.6548 58.7891C47.3162 58.513 47.0532 58.1979 46.8657 57.8438C46.6782 57.4844 46.5845 57.0703 46.5845 56.6016C46.5845 56.138 46.6808 55.7161 46.8735 55.3359C47.0714 54.9557 47.3501 54.6276 47.7095 54.3516C48.074 54.0703 48.5037 53.8542 48.9985 53.7031C49.4933 53.5469 50.0402 53.4688 50.6391 53.4688C51.4829 53.4688 52.2095 53.625 52.8188 53.9375C53.4334 54.25 53.9048 54.6693 54.2329 55.1953C54.5662 55.7214 54.7329 56.3021 54.7329 56.9375H52.7876C52.7876 56.5625 52.7068 56.2318 52.5454 55.9453C52.3891 55.6536 52.1496 55.4245 51.8266 55.2578C51.5089 55.0911 51.1053 55.0078 50.6157 55.0078C50.1522 55.0078 49.7667 55.0781 49.4595 55.2188C49.1522 55.3594 48.923 55.5495 48.772 55.7891C48.6209 56.0286 48.5454 56.2995 48.5454 56.6016C48.5454 56.8151 48.5949 57.0104 48.6938 57.1875C48.7928 57.3594 48.9438 57.5208 49.147 57.6719C49.3501 57.8177 49.6053 57.9557 49.9126 58.0859C50.2199 58.2161 50.5818 58.3411 50.9985 58.4609C51.6287 58.6484 52.1782 58.8568 52.647 59.0859C53.1157 59.3099 53.5063 59.5651 53.8188 59.8516C54.1313 60.138 54.3657 60.4635 54.522 60.8281C54.6782 61.1875 54.7563 61.5964 54.7563 62.0547C54.7563 62.5339 54.66 62.9661 54.4673 63.3516C54.2746 63.7318 53.9985 64.0573 53.6391 64.3281C53.285 64.5938 52.8579 64.7995 52.3579 64.9453C51.8631 65.0859 51.311 65.1562 50.7016 65.1562C50.1548 65.1562 49.6157 65.0833 49.0845 64.9375C48.5584 64.7917 48.0792 64.5703 47.647 64.2734C47.2147 63.9714 46.8709 63.5964 46.6157 63.1484C46.3605 62.6953 46.2329 62.1667 46.2329 61.5625H48.1938C48.1938 61.9323 48.2563 62.2474 48.3813 62.5078C48.5115 62.7682 48.6912 62.9818 48.9204 63.1484C49.1496 63.3099 49.4152 63.4297 49.7173 63.5078C50.0246 63.5859 50.3527 63.625 50.7016 63.625C51.16 63.625 51.5428 63.5599 51.8501 63.4297C52.1626 63.2995 52.397 63.1172 52.5532 62.8828C52.7095 62.6484 52.7876 62.3776 52.7876 62.0703ZM55.9438 60.8672V60.6875C55.9438 60.0781 56.0324 59.513 56.2095 58.9922C56.3865 58.4661 56.6417 58.0104 56.9751 57.625C57.3136 57.2344 57.7251 56.9323 58.2095 56.7188C58.699 56.5 59.2511 56.3906 59.8657 56.3906C60.4855 56.3906 61.0376 56.5 61.522 56.7188C62.0115 56.9323 62.4256 57.2344 62.7641 57.625C63.1027 58.0104 63.3605 58.4661 63.5376 58.9922C63.7147 59.513 63.8032 60.0781 63.8032 60.6875V60.8672C63.8032 61.4766 63.7147 62.0417 63.5376 62.5625C63.3605 63.0833 63.1027 63.5391 62.7641 63.9297C62.4256 64.3151 62.0141 64.6172 61.5298 64.8359C61.0454 65.0495 60.4959 65.1562 59.8813 65.1562C59.2615 65.1562 58.7068 65.0495 58.2173 64.8359C57.7329 64.6172 57.3214 64.3151 56.9829 63.9297C56.6443 63.5391 56.3865 63.0833 56.2095 62.5625C56.0324 62.0417 55.9438 61.4766 55.9438 60.8672ZM57.8266 60.6875V60.8672C57.8266 61.2474 57.8657 61.6068 57.9438 61.9453C58.022 62.2839 58.1443 62.5807 58.311 62.8359C58.4777 63.0911 58.6912 63.2917 58.9516 63.4375C59.2121 63.5833 59.522 63.6562 59.8813 63.6562C60.2303 63.6562 60.5324 63.5833 60.7876 63.4375C61.048 63.2917 61.2615 63.0911 61.4282 62.8359C61.5949 62.5807 61.7173 62.2839 61.7954 61.9453C61.8787 61.6068 61.9204 61.2474 61.9204 60.8672V60.6875C61.9204 60.3125 61.8787 59.9583 61.7954 59.625C61.7173 59.2865 61.5923 58.987 61.4204 58.7266C61.2537 58.4661 61.0402 58.263 60.7798 58.1172C60.5246 57.9661 60.2199 57.8906 59.8657 57.8906C59.5115 57.8906 59.2042 57.9661 58.9438 58.1172C58.6886 58.263 58.4777 58.4661 58.311 58.7266C58.1443 58.987 58.022 59.2865 57.9438 59.625C57.8657 59.9583 57.8266 60.3125 57.8266 60.6875ZM68.8345 63.6562C69.1417 63.6562 69.4178 63.5964 69.6626 63.4766C69.9126 63.3516 70.1131 63.1797 70.2641 62.9609C70.4204 62.7422 70.5063 62.4896 70.522 62.2031H72.2954C72.285 62.75 72.1235 63.2474 71.811 63.6953C71.4985 64.1432 71.0845 64.5 70.5688 64.7656C70.0532 65.026 69.4829 65.1562 68.8579 65.1562C68.2121 65.1562 67.6496 65.0469 67.1704 64.8281C66.6912 64.6042 66.2928 64.2969 65.9751 63.9062C65.6574 63.5156 65.4178 63.0651 65.2563 62.5547C65.1001 62.0443 65.022 61.4974 65.022 60.9141V60.6406C65.022 60.0573 65.1001 59.5104 65.2563 59C65.4178 58.4844 65.6574 58.0312 65.9751 57.6406C66.2928 57.25 66.6912 56.9453 67.1704 56.7266C67.6496 56.5026 68.2095 56.3906 68.8501 56.3906C69.5272 56.3906 70.1209 56.526 70.6313 56.7969C71.1417 57.0625 71.5428 57.4349 71.8345 57.9141C72.1313 58.388 72.285 58.9401 72.2954 59.5703H70.522C70.5063 59.2578 70.4282 58.9766 70.2876 58.7266C70.1522 58.4714 69.9595 58.2682 69.7095 58.1172C69.4647 57.9661 69.1704 57.8906 68.8266 57.8906C68.4464 57.8906 68.1313 57.9688 67.8813 58.125C67.6313 58.276 67.436 58.4844 67.2954 58.75C67.1548 59.0104 67.0532 59.3047 66.9907 59.6328C66.9334 59.9557 66.9048 60.2917 66.9048 60.6406V60.9141C66.9048 61.263 66.9334 61.6016 66.9907 61.9297C67.048 62.2578 67.147 62.5521 67.2876 62.8125C67.4334 63.0677 67.6313 63.2734 67.8813 63.4297C68.1313 63.5807 68.449 63.6562 68.8345 63.6562ZM75.7563 56.5469V65H73.8657V56.5469H75.7563ZM73.7407 54.3281C73.7407 54.0417 73.8345 53.8047 74.022 53.6172C74.2147 53.4245 74.4803 53.3281 74.8188 53.3281C75.1522 53.3281 75.4152 53.4245 75.6079 53.6172C75.8006 53.8047 75.897 54.0417 75.897 54.3281C75.897 54.6094 75.8006 54.8438 75.6079 55.0312C75.4152 55.2188 75.1522 55.3125 74.8188 55.3125C74.4803 55.3125 74.2147 55.2188 74.022 55.0312C73.8345 54.8438 73.7407 54.6094 73.7407 54.3281ZM82.5845 63.3047V59.2734C82.5845 58.9714 82.5298 58.7109 82.4204 58.4922C82.311 58.2734 82.1443 58.1042 81.9204 57.9844C81.7016 57.8646 81.4256 57.8047 81.0923 57.8047C80.785 57.8047 80.5193 57.8568 80.2954 57.9609C80.0714 58.0651 79.897 58.2057 79.772 58.3828C79.647 58.5599 79.5845 58.7604 79.5845 58.9844H77.7095C77.7095 58.651 77.7902 58.3281 77.9516 58.0156C78.1131 57.7031 78.3475 57.4245 78.6548 57.1797C78.9621 56.9349 79.3292 56.7422 79.7563 56.6016C80.1834 56.4609 80.6626 56.3906 81.1938 56.3906C81.8292 56.3906 82.3917 56.4974 82.8813 56.7109C83.3761 56.9245 83.7641 57.2474 84.0454 57.6797C84.3318 58.1068 84.4751 58.6432 84.4751 59.2891V63.0469C84.4751 63.4323 84.5011 63.7786 84.5532 64.0859C84.6105 64.388 84.6912 64.651 84.7954 64.875V65H82.8657C82.7772 64.7969 82.7068 64.5391 82.6548 64.2266C82.6079 63.9089 82.5845 63.6016 82.5845 63.3047ZM82.8579 59.8594L82.8735 61.0234H81.522C81.173 61.0234 80.8657 61.0573 80.6001 61.125C80.3345 61.1875 80.1131 61.2812 79.936 61.4062C79.7589 61.5312 79.6261 61.6823 79.5376 61.8594C79.449 62.0365 79.4048 62.237 79.4048 62.4609C79.4048 62.6849 79.4568 62.8906 79.561 63.0781C79.6652 63.2604 79.8162 63.4036 80.0141 63.5078C80.2173 63.612 80.4621 63.6641 80.7485 63.6641C81.1339 63.6641 81.4699 63.5859 81.7563 63.4297C82.048 63.2682 82.2772 63.0729 82.4438 62.8438C82.6105 62.6094 82.699 62.388 82.7095 62.1797L83.3188 63.0156C83.2563 63.2292 83.1496 63.4583 82.9985 63.7031C82.8475 63.9479 82.6496 64.1823 82.4048 64.4062C82.1652 64.625 81.8761 64.8047 81.5376 64.9453C81.2042 65.0859 80.8188 65.1562 80.3813 65.1562C79.8292 65.1562 79.3371 65.0469 78.9048 64.8281C78.4725 64.6042 78.1339 64.3047 77.8891 63.9297C77.6443 63.5495 77.522 63.1198 77.522 62.6406C77.522 62.1927 77.6053 61.7969 77.772 61.4531C77.9438 61.1042 78.1938 60.8125 78.522 60.5781C78.8553 60.3438 79.2615 60.1667 79.7407 60.0469C80.2199 59.9219 80.7667 59.8594 81.3813 59.8594H82.8579ZM88.4595 53V65H86.5688V53H88.4595ZM39.8813 79.1406L36.4829 89H34.4282L38.7095 77.625H40.022L39.8813 79.1406ZM42.7251 89L39.3188 79.1406L39.1704 77.625H40.4907L44.7876 89H42.7251ZM42.561 84.7812V86.3359H36.3735V84.7812H42.561ZM49.3266 87.6562C49.6339 87.6562 49.91 87.5964 50.1548 87.4766C50.4048 87.3516 50.6053 87.1797 50.7563 86.9609C50.9126 86.7422 50.9985 86.4896 51.0141 86.2031H52.7876C52.7772 86.75 52.6157 87.2474 52.3032 87.6953C51.9907 88.1432 51.5766 88.5 51.061 88.7656C50.5454 89.026 49.9751 89.1562 49.3501 89.1562C48.7042 89.1562 48.1417 89.0469 47.6626 88.8281C47.1834 88.6042 46.785 88.2969 46.4673 87.9062C46.1496 87.5156 45.91 87.0651 45.7485 86.5547C45.5923 86.0443 45.5141 85.4974 45.5141 84.9141V84.6406C45.5141 84.0573 45.5923 83.5104 45.7485 83C45.91 82.4844 46.1496 82.0312 46.4673 81.6406C46.785 81.25 47.1834 80.9453 47.6626 80.7266C48.1417 80.5026 48.7016 80.3906 49.3423 80.3906C50.0193 80.3906 50.6131 80.526 51.1235 80.7969C51.6339 81.0625 52.035 81.4349 52.3266 81.9141C52.6235 82.388 52.7772 82.9401 52.7876 83.5703H51.0141C50.9985 83.2578 50.9204 82.9766 50.7798 82.7266C50.6443 82.4714 50.4516 82.2682 50.2016 82.1172C49.9568 81.9661 49.6626 81.8906 49.3188 81.8906C48.9386 81.8906 48.6235 81.9688 48.3735 82.125C48.1235 82.276 47.9282 82.4844 47.7876 82.75C47.647 83.0104 47.5454 83.3047 47.4829 83.6328C47.4256 83.9557 47.397 84.2917 47.397 84.6406V84.9141C47.397 85.263 47.4256 85.6016 47.4829 85.9297C47.5402 86.2578 47.6391 86.5521 47.7798 86.8125C47.9256 87.0677 48.1235 87.2734 48.3735 87.4297C48.6235 87.5807 48.9412 87.6562 49.3266 87.6562ZM58.1079 80.5469V81.9219H53.3423V80.5469H58.1079ZM54.7173 78.4766H56.6001V86.6641C56.6001 86.9245 56.6365 87.125 56.7095 87.2656C56.7876 87.401 56.8943 87.4922 57.0298 87.5391C57.1652 87.5859 57.324 87.6094 57.5063 87.6094C57.6365 87.6094 57.7615 87.6016 57.8813 87.5859C58.0011 87.5703 58.0975 87.5547 58.1704 87.5391L58.1782 88.9766C58.022 89.0234 57.8397 89.0651 57.6313 89.1016C57.4282 89.138 57.1938 89.1562 56.9282 89.1562C56.4959 89.1562 56.1131 89.0807 55.7798 88.9297C55.4464 88.7734 55.186 88.5208 54.9985 88.1719C54.811 87.8229 54.7173 87.3594 54.7173 86.7812V78.4766ZM61.5766 80.5469V89H59.686V80.5469H61.5766ZM59.561 78.3281C59.561 78.0417 59.6548 77.8047 59.8423 77.6172C60.035 77.4245 60.3006 77.3281 60.6391 77.3281C60.9725 77.3281 61.2355 77.4245 61.4282 77.6172C61.6209 77.8047 61.7173 78.0417 61.7173 78.3281C61.7173 78.6094 61.6209 78.8438 61.4282 79.0312C61.2355 79.2188 60.9725 79.3125 60.6391 79.3125C60.3006 79.3125 60.035 79.2188 59.8423 79.0312C59.6548 78.8438 59.561 78.6094 59.561 78.3281ZM66.3891 87.5078L68.4595 80.5469H70.4126L67.4751 89H66.2563L66.3891 87.5078ZM64.8032 80.5469L66.9126 87.5391L67.0141 89H65.7954L62.8423 80.5469H64.8032ZM73.5923 80.5469V89H71.7016V80.5469H73.5923ZM71.5766 78.3281C71.5766 78.0417 71.6704 77.8047 71.8579 77.6172C72.0506 77.4245 72.3162 77.3281 72.6548 77.3281C72.9881 77.3281 73.2511 77.4245 73.4438 77.6172C73.6365 77.8047 73.7329 78.0417 73.7329 78.3281C73.7329 78.6094 73.6365 78.8438 73.4438 79.0312C73.2511 79.2188 72.9881 79.3125 72.6548 79.3125C72.3162 79.3125 72.0506 79.2188 71.8579 79.0312C71.6704 78.8438 71.5766 78.6094 71.5766 78.3281ZM79.5298 80.5469V81.9219H74.7641V80.5469H79.5298ZM76.1391 78.4766H78.022V86.6641C78.022 86.9245 78.0584 87.125 78.1313 87.2656C78.2095 87.401 78.3162 87.4922 78.4516 87.5391C78.5871 87.5859 78.7459 87.6094 78.9282 87.6094C79.0584 87.6094 79.1834 87.6016 79.3032 87.5859C79.423 87.5703 79.5193 87.5547 79.5923 87.5391L79.6001 88.9766C79.4438 89.0234 79.2615 89.0651 79.0532 89.1016C78.8501 89.138 78.6157 89.1562 78.3501 89.1562C77.9178 89.1562 77.535 89.0807 77.2016 88.9297C76.8683 88.7734 76.6079 88.5208 76.4204 88.1719C76.2329 87.8229 76.1391 87.3594 76.1391 86.7812V78.4766ZM82.9985 80.5469V89H81.1079V80.5469H82.9985ZM80.9829 78.3281C80.9829 78.0417 81.0766 77.8047 81.2641 77.6172C81.4568 77.4245 81.7225 77.3281 82.061 77.3281C82.3943 77.3281 82.6574 77.4245 82.8501 77.6172C83.0428 77.8047 83.1391 78.0417 83.1391 78.3281C83.1391 78.6094 83.0428 78.8438 82.8501 79.0312C82.6574 79.2188 82.3943 79.3125 82.061 79.3125C81.7225 79.3125 81.4568 79.2188 81.2641 79.0312C81.0766 78.8438 80.9829 78.6094 80.9829 78.3281ZM88.7876 89.1562C88.1626 89.1562 87.5975 89.0547 87.0923 88.8516C86.5923 88.6432 86.1652 88.3542 85.811 87.9844C85.4621 87.6146 85.1938 87.1797 85.0063 86.6797C84.8188 86.1797 84.7251 85.6406 84.7251 85.0625V84.75C84.7251 84.0885 84.8214 83.4896 85.0141 82.9531C85.2068 82.4167 85.4751 81.9583 85.8188 81.5781C86.1626 81.1927 86.5688 80.8984 87.0376 80.6953C87.5063 80.4922 88.0141 80.3906 88.561 80.3906C89.1652 80.3906 89.6938 80.4922 90.147 80.6953C90.6001 80.8984 90.9751 81.1849 91.272 81.5547C91.574 81.9193 91.798 82.3542 91.9438 82.8594C92.0949 83.3646 92.1704 83.9219 92.1704 84.5312V85.3359H85.6391V83.9844H90.311V83.8359C90.3006 83.4974 90.2329 83.1797 90.1079 82.8828C89.9881 82.5859 89.8032 82.3464 89.5532 82.1641C89.3032 81.9818 88.9699 81.8906 88.5532 81.8906C88.2407 81.8906 87.9621 81.9583 87.7173 82.0938C87.4777 82.224 87.2772 82.4141 87.1157 82.6641C86.9542 82.9141 86.8292 83.2161 86.7407 83.5703C86.6574 83.9193 86.6157 84.3125 86.6157 84.75V85.0625C86.6157 85.4323 86.6652 85.776 86.7641 86.0938C86.8683 86.4062 87.0193 86.6797 87.2173 86.9141C87.4152 87.1484 87.6548 87.3333 87.936 87.4688C88.2173 87.599 88.5376 87.6641 88.897 87.6641C89.3501 87.6641 89.7537 87.5729 90.1079 87.3906C90.4621 87.2083 90.7693 86.9505 91.0298 86.6172L92.022 87.5781C91.8397 87.8438 91.6027 88.099 91.311 88.3438C91.0193 88.5833 90.6626 88.7786 90.2407 88.9297C89.824 89.0807 89.3397 89.1562 88.7876 89.1562ZM98.3813 86.7109C98.3813 86.5234 98.3345 86.3542 98.2407 86.2031C98.147 86.0469 97.9673 85.9062 97.7016 85.7812C97.4412 85.6562 97.0558 85.5417 96.5454 85.4375C96.0975 85.3385 95.686 85.2214 95.311 85.0859C94.9412 84.9453 94.6235 84.776 94.3579 84.5781C94.0923 84.3802 93.8865 84.1458 93.7407 83.875C93.5949 83.6042 93.522 83.2917 93.522 82.9375C93.522 82.5938 93.5975 82.2682 93.7485 81.9609C93.8996 81.6536 94.1157 81.3828 94.397 81.1484C94.6782 80.9141 95.0193 80.7292 95.4204 80.5938C95.8266 80.4583 96.2798 80.3906 96.7798 80.3906C97.4881 80.3906 98.0949 80.5104 98.6001 80.75C99.1105 80.9844 99.5011 81.3047 99.772 81.7109C100.043 82.112 100.178 82.5651 100.178 83.0703H98.2954C98.2954 82.8464 98.2381 82.638 98.1235 82.4453C98.0141 82.2474 97.8475 82.0885 97.6235 81.9688C97.3996 81.8438 97.1183 81.7812 96.7798 81.7812C96.4568 81.7812 96.1886 81.8333 95.9751 81.9375C95.7667 82.0365 95.6105 82.1667 95.5063 82.3281C95.4074 82.4896 95.3579 82.6667 95.3579 82.8594C95.3579 83 95.3839 83.1276 95.436 83.2422C95.4933 83.3516 95.5871 83.4531 95.7173 83.5469C95.8475 83.6354 96.0246 83.7188 96.2485 83.7969C96.4777 83.875 96.7641 83.9505 97.1079 84.0234C97.7537 84.1589 98.3084 84.3333 98.772 84.5469C99.2407 84.7552 99.6001 85.026 99.8501 85.3594C100.1 85.6875 100.225 86.1042 100.225 86.6094C100.225 86.9844 100.144 87.3281 99.9829 87.6406C99.8266 87.9479 99.5975 88.2161 99.2954 88.4453C98.9933 88.6693 98.6313 88.8438 98.2095 88.9688C97.7928 89.0938 97.324 89.1562 96.8032 89.1562C96.0376 89.1562 95.3891 89.0208 94.8579 88.75C94.3266 88.474 93.923 88.1224 93.647 87.6953C93.3761 87.263 93.2407 86.8151 93.2407 86.3516H95.061C95.0818 86.7005 95.1782 86.9792 95.3501 87.1875C95.5272 87.3906 95.7459 87.5391 96.0063 87.6328C96.272 87.7214 96.5454 87.7656 96.8266 87.7656C97.1652 87.7656 97.449 87.7214 97.6782 87.6328C97.9074 87.5391 98.0818 87.4141 98.2016 87.2578C98.3214 87.0964 98.3813 86.9141 98.3813 86.7109Z" fill="#212121"/>
<defs>
<clipPath id="clip0_2_2348">
<rect width="20" height="20" fill="white" transform="translate(57.5 22)"/>
</clipPath>
<clipPath id="clip1_2_2348">
<rect width="19" height="20" fill="white" transform="translate(58 22)"/>
</clipPath>
</defs>
</svg>
