<svg width="135" height="112" viewBox="0 0 135 112" fill="none" xmlns="http://www.w3.org/2000/svg">
<rect width="135" height="112" rx="8" fill="#97CAD1" fill-opacity="0.08"/>
<g clip-path="url(#clip0_2_2388)">
<g clip-path="url(#clip1_2_2388)">
<g clip-path="url(#clip2_2_2388)">
<path d="M75.2775 22.833H59.7219C58.9548 22.833 58.333 23.4548 58.333 24.2219V39.7775C58.333 40.5445 58.9548 41.1663 59.7219 41.1663H75.2775C76.0445 41.1663 76.6663 40.5445 76.6663 39.7775V24.2219C76.6663 23.4548 76.0445 22.833 75.2775 22.833Z" stroke="#008294" stroke-width="1.66667"/>
<path d="M67.5036 33.6663C68.4241 33.6663 69.1702 32.9201 69.1702 31.9997C69.1702 31.0792 68.4241 30.333 67.5036 30.333C66.5831 30.333 65.8369 31.0792 65.8369 31.9997C65.8369 32.9201 66.5831 33.6663 67.5036 33.6663Z" fill="#008294"/>
<path d="M71.9333 38.1038C72.8537 38.1038 73.5999 37.3576 73.5999 36.4372C73.5999 35.5167 72.8537 34.7705 71.9333 34.7705C71.0128 34.7705 70.2666 35.5167 70.2666 36.4372C70.2666 37.3576 71.0128 38.1038 71.9333 38.1038Z" fill="#008294"/>
<path d="M63.0671 29.2298C63.9875 29.2298 64.7337 28.4836 64.7337 27.5632C64.7337 26.6427 63.9875 25.8965 63.0671 25.8965C62.1466 25.8965 61.4004 26.6427 61.4004 27.5632C61.4004 28.4836 62.1466 29.2298 63.0671 29.2298Z" fill="#008294"/>
</g>
</g>
</g>
<path d="M52.3497 59.1875V63.5312C52.1883 63.7448 51.9357 63.9792 51.5919 64.2344C51.2534 64.4844 50.8029 64.7005 50.2404 64.8828C49.6779 65.0651 48.9773 65.1562 48.1388 65.1562C47.4252 65.1562 46.7716 65.0365 46.1779 64.7969C45.5841 64.5521 45.0711 64.1953 44.6388 63.7266C44.2117 63.2578 43.881 62.6875 43.6466 62.0156C43.4122 61.3385 43.295 60.5677 43.295 59.7031V58.9141C43.295 58.0547 43.4018 57.2891 43.6154 56.6172C43.8341 55.9401 44.1466 55.3672 44.5529 54.8984C44.9591 54.4297 45.4487 54.0755 46.0216 53.8359C46.5997 53.5911 47.2534 53.4688 47.9825 53.4688C48.9148 53.4688 49.6857 53.625 50.295 53.9375C50.9096 54.2448 51.3836 54.6719 51.7169 55.2188C52.0502 55.7656 52.2612 56.3906 52.3497 57.0938H50.4279C50.3654 56.6979 50.243 56.3438 50.0607 56.0312C49.8836 55.7188 49.6284 55.474 49.295 55.2969C48.9669 55.1146 48.5398 55.0234 48.0138 55.0234C47.5607 55.0234 47.1622 55.1094 46.8185 55.2812C46.4747 55.4531 46.1883 55.7057 45.9591 56.0391C45.7351 56.3724 45.5659 56.7786 45.4513 57.2578C45.3367 57.737 45.2794 58.2839 45.2794 58.8984V59.7031C45.2794 60.3281 45.3445 60.8828 45.4747 61.3672C45.6101 61.8516 45.8029 62.2604 46.0529 62.5938C46.3081 62.9271 46.618 63.1797 46.9825 63.3516C47.3471 63.5182 47.7586 63.6016 48.2169 63.6016C48.6648 63.6016 49.032 63.5651 49.3185 63.4922C49.6049 63.4141 49.8315 63.3229 49.9982 63.2188C50.17 63.1094 50.3029 63.0052 50.3966 62.9062V60.6484H48.0294V59.1875H52.3497ZM59.0997 63.3047V59.2734C59.0997 58.9714 59.045 58.7109 58.9357 58.4922C58.8263 58.2734 58.6596 58.1042 58.4357 57.9844C58.2169 57.8646 57.9409 57.8047 57.6075 57.8047C57.3002 57.8047 57.0346 57.8568 56.8107 57.9609C56.5867 58.0651 56.4122 58.2057 56.2872 58.3828C56.1622 58.5599 56.0997 58.7604 56.0997 58.9844H54.2247C54.2247 58.651 54.3055 58.3281 54.4669 58.0156C54.6284 57.7031 54.8627 57.4245 55.17 57.1797C55.4773 56.9349 55.8445 56.7422 56.2716 56.6016C56.6987 56.4609 57.1779 56.3906 57.7091 56.3906C58.3445 56.3906 58.907 56.4974 59.3966 56.7109C59.8914 56.9245 60.2794 57.2474 60.5607 57.6797C60.8471 58.1068 60.9904 58.6432 60.9904 59.2891V63.0469C60.9904 63.4323 61.0164 63.7786 61.0685 64.0859C61.1258 64.388 61.2065 64.651 61.3107 64.875V65H59.381C59.2924 64.7969 59.2221 64.5391 59.17 64.2266C59.1232 63.9089 59.0997 63.6016 59.0997 63.3047ZM59.3732 59.8594L59.3888 61.0234H58.0372C57.6883 61.0234 57.381 61.0573 57.1154 61.125C56.8497 61.1875 56.6284 61.2812 56.4513 61.4062C56.2742 61.5312 56.1414 61.6823 56.0529 61.8594C55.9643 62.0365 55.92 62.237 55.92 62.4609C55.92 62.6849 55.9721 62.8906 56.0763 63.0781C56.1805 63.2604 56.3315 63.4036 56.5294 63.5078C56.7325 63.612 56.9773 63.6641 57.2638 63.6641C57.6492 63.6641 57.9851 63.5859 58.2716 63.4297C58.5633 63.2682 58.7924 63.0729 58.9591 62.8438C59.1258 62.6094 59.2143 62.388 59.2247 62.1797L59.8341 63.0156C59.7716 63.2292 59.6648 63.4583 59.5138 63.7031C59.3627 63.9479 59.1648 64.1823 58.92 64.4062C58.6805 64.625 58.3914 64.8047 58.0529 64.9453C57.7195 65.0859 57.3341 65.1562 56.8966 65.1562C56.3445 65.1562 55.8523 65.0469 55.42 64.8281C54.9877 64.6042 54.6492 64.3047 54.4044 63.9297C54.1596 63.5495 54.0372 63.1198 54.0372 62.6406C54.0372 62.1927 54.1206 61.7969 54.2872 61.4531C54.4591 61.1042 54.7091 60.8125 55.0372 60.5781C55.3706 60.3438 55.7768 60.1667 56.256 60.0469C56.7351 59.9219 57.282 59.8594 57.8966 59.8594H59.3732ZM64.8419 58.2656V65H62.9591V56.5469H64.7325L64.8419 58.2656ZM64.5372 60.4609L63.8966 60.4531C63.8966 59.8698 63.9695 59.3307 64.1154 58.8359C64.2612 58.3411 64.4747 57.9115 64.756 57.5469C65.0372 57.1771 65.3862 56.8932 65.8029 56.6953C66.2247 56.4922 66.7117 56.3906 67.2638 56.3906C67.6492 56.3906 68.0008 56.4479 68.3185 56.5625C68.6414 56.6719 68.92 56.8464 69.1544 57.0859C69.394 57.3255 69.5763 57.6328 69.7013 58.0078C69.8315 58.3828 69.8966 58.8359 69.8966 59.3672V65H68.0138V59.5312C68.0138 59.1198 67.9513 58.7969 67.8263 58.5625C67.7065 58.3281 67.532 58.1615 67.3029 58.0625C67.0789 57.9583 66.8107 57.9062 66.4982 57.9062C66.144 57.9062 65.8419 57.974 65.5919 58.1094C65.3471 58.2448 65.1466 58.4297 64.9904 58.6641C64.8341 58.8984 64.7195 59.1693 64.6466 59.4766C64.5737 59.7839 64.5372 60.112 64.5372 60.4609ZM69.7794 59.9609L68.8966 60.1562C68.8966 59.6458 68.9669 59.1641 69.1075 58.7109C69.2534 58.2526 69.4643 57.8516 69.7404 57.5078C70.0216 57.1589 70.368 56.8854 70.7794 56.6875C71.1909 56.4896 71.6622 56.3906 72.1935 56.3906C72.6258 56.3906 73.0112 56.4505 73.3497 56.5703C73.6935 56.6849 73.9851 56.8672 74.2247 57.1172C74.4643 57.3672 74.6466 57.6927 74.7716 58.0938C74.8966 58.4896 74.9591 58.9688 74.9591 59.5312V65H73.0685V59.5234C73.0685 59.0964 73.006 58.7656 72.881 58.5312C72.7612 58.2969 72.5893 58.1354 72.3654 58.0469C72.1414 57.9531 71.8732 57.9062 71.5607 57.9062C71.269 57.9062 71.0112 57.9609 70.7872 58.0703C70.5685 58.1745 70.3836 58.3229 70.2325 58.5156C70.0815 58.7031 69.9669 58.9193 69.8888 59.1641C69.8159 59.4089 69.7794 59.6745 69.7794 59.9609ZM80.6232 65.1562C79.9982 65.1562 79.4331 65.0547 78.9278 64.8516C78.4278 64.6432 78.0008 64.3542 77.6466 63.9844C77.2976 63.6146 77.0294 63.1797 76.8419 62.6797C76.6544 62.1797 76.5607 61.6406 76.5607 61.0625V60.75C76.5607 60.0885 76.657 59.4896 76.8497 58.9531C77.0424 58.4167 77.3107 57.9583 77.6544 57.5781C77.9982 57.1927 78.4044 56.8984 78.8732 56.6953C79.3419 56.4922 79.8497 56.3906 80.3966 56.3906C81.0008 56.3906 81.5294 56.4922 81.9825 56.6953C82.4357 56.8984 82.8107 57.1849 83.1075 57.5547C83.4096 57.9193 83.6336 58.3542 83.7794 58.8594C83.9305 59.3646 84.006 59.9219 84.006 60.5312V61.3359H77.4747V59.9844H82.1466V59.8359C82.1362 59.4974 82.0685 59.1797 81.9435 58.8828C81.8237 58.5859 81.6388 58.3464 81.3888 58.1641C81.1388 57.9818 80.8055 57.8906 80.3888 57.8906C80.0763 57.8906 79.7976 57.9583 79.5528 58.0938C79.3133 58.224 79.1127 58.4141 78.9513 58.6641C78.7898 58.9141 78.6648 59.2161 78.5763 59.5703C78.493 59.9193 78.4513 60.3125 78.4513 60.75V61.0625C78.4513 61.4323 78.5008 61.776 78.5997 62.0938C78.7039 62.4062 78.8549 62.6797 79.0528 62.9141C79.2508 63.1484 79.4903 63.3333 79.7716 63.4688C80.0528 63.599 80.3732 63.6641 80.7325 63.6641C81.1857 63.6641 81.5893 63.5729 81.9435 63.3906C82.2976 63.2083 82.6049 62.9505 82.8653 62.6172L83.8575 63.5781C83.6752 63.8438 83.4383 64.099 83.1466 64.3438C82.8549 64.5833 82.4982 64.7786 82.0763 64.9297C81.6596 65.0807 81.1752 65.1562 80.6232 65.1562ZM90.2169 62.7109C90.2169 62.5234 90.17 62.3542 90.0763 62.2031C89.9825 62.0469 89.8028 61.9062 89.5372 61.7812C89.2768 61.6562 88.8914 61.5417 88.381 61.4375C87.9331 61.3385 87.5216 61.2214 87.1466 61.0859C86.7768 60.9453 86.4591 60.776 86.1935 60.5781C85.9278 60.3802 85.7221 60.1458 85.5763 59.875C85.4305 59.6042 85.3575 59.2917 85.3575 58.9375C85.3575 58.5938 85.4331 58.2682 85.5841 57.9609C85.7351 57.6536 85.9513 57.3828 86.2325 57.1484C86.5138 56.9141 86.8549 56.7292 87.256 56.5938C87.6622 56.4583 88.1153 56.3906 88.6153 56.3906C89.3237 56.3906 89.9305 56.5104 90.4357 56.75C90.9461 56.9844 91.3367 57.3047 91.6075 57.7109C91.8784 58.112 92.0138 58.5651 92.0138 59.0703H90.131C90.131 58.8464 90.0737 58.638 89.9591 58.4453C89.8497 58.2474 89.6831 58.0885 89.4591 57.9688C89.2351 57.8438 88.9539 57.7812 88.6153 57.7812C88.2924 57.7812 88.0242 57.8333 87.8107 57.9375C87.6023 58.0365 87.4461 58.1667 87.3419 58.3281C87.243 58.4896 87.1935 58.6667 87.1935 58.8594C87.1935 59 87.2195 59.1276 87.2716 59.2422C87.3289 59.3516 87.4226 59.4531 87.5528 59.5469C87.6831 59.6354 87.8601 59.7188 88.0841 59.7969C88.3133 59.875 88.5997 59.9505 88.9435 60.0234C89.5893 60.1589 90.144 60.3333 90.6075 60.5469C91.0763 60.7552 91.4357 61.026 91.6857 61.3594C91.9357 61.6875 92.0607 62.1042 92.0607 62.6094C92.0607 62.9844 91.9799 63.3281 91.8185 63.6406C91.6622 63.9479 91.4331 64.2161 91.131 64.4453C90.8289 64.6693 90.4669 64.8438 90.045 64.9688C89.6284 65.0938 89.1596 65.1562 88.6388 65.1562C87.8732 65.1562 87.2247 65.0208 86.6935 64.75C86.1622 64.474 85.7586 64.1224 85.4825 63.6953C85.2117 63.263 85.0763 62.8151 85.0763 62.3516H86.8966C86.9174 62.7005 87.0138 62.9792 87.1857 63.1875C87.3627 63.3906 87.5815 63.5391 87.8419 63.6328C88.1075 63.7214 88.381 63.7656 88.6622 63.7656C89.0008 63.7656 89.2846 63.7214 89.5138 63.6328C89.743 63.5391 89.9174 63.4141 90.0372 63.2578C90.157 63.0964 90.2169 62.9141 90.2169 62.7109Z" fill="#212121"/>
<defs>
<clipPath id="clip0_2_2388">
<rect width="20" height="20" fill="white" transform="translate(57.5 22)"/>
</clipPath>
<clipPath id="clip1_2_2388">
<rect width="20" height="20" fill="white" transform="translate(57.5 22)"/>
</clipPath>
<clipPath id="clip2_2_2388">
<rect width="20" height="20" fill="white" transform="translate(57.5 22)"/>
</clipPath>
</defs>
</svg>
