<svg width="135" height="112" viewBox="0 0 135 112" fill="none" xmlns="http://www.w3.org/2000/svg">
<rect width="135" height="112" rx="8" fill="#97CAD1" fill-opacity="0.08"/>
<g clip-path="url(#clip0_2_2378)">
<g clip-path="url(#clip1_2_2378)">
<g clip-path="url(#clip2_2_2378)">
<path fill-rule="evenodd" clip-rule="evenodd" d="M63.5186 36.6421C63.5185 36.6421 63.5186 36.6422 63.5186 36.6421C64.0064 36.8105 64.5176 36.9188 65.0408 36.9604C65.0408 36.9604 65.0408 36.9604 65.0408 36.9604C64.5176 36.9188 64.0064 36.8105 63.5186 36.6421ZM65.9063 36.9682C65.9062 36.9682 65.9063 36.9682 65.9063 36.9682V36.9682ZM68.0423 41.7197C65.9629 41.1626 64.4158 39.6104 63.776 37.7127C64.3073 37.8479 64.8575 37.9228 65.4168 37.9316C66.0112 39.0775 67.0668 39.9794 68.4121 40.3398C70.9524 41.0205 73.5636 39.513 74.2443 36.9727L75.6 31.9131C75.668 31.6591 75.5173 31.3979 75.2632 31.3299L72.6754 30.6365C72.6642 30.1292 72.5985 29.6158 72.474 29.1035L75.6329 29.95C76.6491 30.2222 77.2521 31.2667 76.9799 32.2828L75.6242 37.3424C74.7392 40.6449 71.3447 42.6046 68.0423 41.7197ZM67.0523 37.7888C66.8183 38.0229 66.4621 38.0605 66.1887 37.9016C66.4852 37.8739 66.783 37.8274 67.0805 37.7611C67.0711 37.7702 67.0617 37.7794 67.0523 37.7888ZM69.3523 37.1725C69.1992 37.1315 69.0431 37.106 68.8863 37.0961C69.4351 36.805 69.9356 36.4472 70.3801 36.0358C70.768 36.2214 71.1232 36.4721 71.4297 36.7786C71.9025 37.2514 72.2426 37.8404 72.4157 38.4864C72.5178 38.8674 72.2917 39.2591 71.9106 39.3612C71.5296 39.4633 71.1379 39.2372 71.0358 38.8561C70.9276 38.4524 70.7151 38.0843 70.4196 37.7888C70.1241 37.4933 69.7559 37.2807 69.3523 37.1725ZM71.2138 35.4034C71.1716 35.3613 71.1314 35.3172 71.0936 35.2714C71.4326 34.8501 71.7229 34.3919 71.9587 33.9063C72.0235 33.9836 72.0728 34.076 72.1007 34.1798C72.1223 34.2606 72.1648 34.3342 72.224 34.3934C72.283 34.4524 72.3566 34.495 72.4374 34.5166C72.5182 34.5382 72.6032 34.5382 72.6839 34.5166C72.7646 34.495 72.8383 34.4524 72.8974 34.3934C73.1763 34.1144 73.6285 34.1144 73.9075 34.3934C74.1864 34.6723 74.1864 35.1245 73.9075 35.4034C73.6711 35.6399 73.3766 35.8099 73.0537 35.8965C72.7307 35.983 72.3906 35.983 72.0677 35.8965C71.7447 35.8099 71.4503 35.6399 71.2138 35.4034Z" fill="#FFAD43"/>
<path fill-rule="evenodd" clip-rule="evenodd" d="M68.1932 24.1582L59.9138 26.3766C59.6598 26.4447 59.509 26.7058 59.5771 26.9598L60.9328 32.0194C61.6135 34.5597 64.2246 36.0673 66.7649 35.3866C69.3052 34.7059 70.8128 32.0948 70.1321 29.5545L68.7764 24.4949C68.7084 24.2408 68.4472 24.0901 68.1932 24.1582ZM59.5441 24.9967C58.528 25.269 57.9249 26.3134 58.1972 27.3296L59.5529 32.3892C60.4378 35.6915 63.8323 37.6513 67.1347 36.7665C70.4371 35.8816 72.3968 32.4872 71.512 29.1847L70.1563 24.1251C69.884 23.109 68.8396 22.506 67.8234 22.7783L59.5441 24.9967Z" fill="#FFAD43"/>
<path fill-rule="evenodd" clip-rule="evenodd" d="M62.4934 28.644C62.433 28.6602 62.3764 28.6881 62.3268 28.7262C62.2772 28.7643 62.2355 28.8117 62.2043 28.8659C62.173 28.92 62.1527 28.9798 62.1446 29.0418C62.1364 29.1038 62.1405 29.1668 62.1567 29.2272C62.2588 29.6083 62.0327 29.9999 61.6516 30.102C61.2706 30.2041 60.8789 29.978 60.7768 29.597C60.7121 29.3554 60.6956 29.1034 60.7282 28.8554C60.7609 28.6074 60.842 28.3682 60.9671 28.1516C61.0922 27.935 61.2587 27.7451 61.4571 27.5928C61.6556 27.4406 61.8821 27.3289 62.1237 27.2641C62.3653 27.1994 62.6173 27.1829 62.8653 27.2155C63.1133 27.2482 63.3524 27.3293 63.5691 27.4544C63.7857 27.5795 63.9756 27.746 64.1278 27.9444C64.2801 28.1429 64.3918 28.3694 64.4565 28.611C64.5586 28.992 64.3325 29.3837 63.9515 29.4858C63.5704 29.5879 63.1787 29.3618 63.0766 28.9807C63.0605 28.9203 63.0325 28.8637 62.9945 28.8141C62.9564 28.7645 62.9089 28.7229 62.8548 28.6916C62.8006 28.6603 62.7408 28.64 62.6788 28.6319C62.6168 28.6237 62.5538 28.6278 62.4934 28.644Z" fill="#FFAD43"/>
<path fill-rule="evenodd" clip-rule="evenodd" d="M67.0931 27.4116C66.9711 27.4443 66.867 27.5241 66.8039 27.6335C66.7407 27.7428 66.7236 27.8728 66.7563 27.9948C66.8584 28.3759 66.6323 28.7675 66.2512 28.8696C65.8702 28.9717 65.4785 28.7456 65.3764 28.3645C65.2457 27.8766 65.3141 27.3567 65.5667 26.9192C65.8193 26.4817 66.2353 26.1625 66.7233 26.0317C67.2112 25.901 67.7311 25.9694 68.1687 26.222C68.6062 26.4746 68.9254 26.8906 69.0561 27.3786C69.1583 27.7596 68.9321 28.1513 68.5511 28.2534C68.17 28.3555 67.7784 28.1294 67.6763 27.7483C67.6435 27.6263 67.5637 27.5223 67.4544 27.4592C67.3451 27.396 67.2151 27.3789 67.0931 27.4116Z" fill="#FFAD43"/>
<path fill-rule="evenodd" clip-rule="evenodd" d="M62.2561 31.8876C62.535 31.6086 62.9873 31.6086 63.2662 31.8876C63.6209 32.2422 64.0626 32.4972 64.5471 32.627C65.0315 32.7568 65.5416 32.7568 66.026 32.627C66.5105 32.4972 66.9522 32.2422 67.3068 31.8876C67.6615 31.5329 67.9165 31.0912 68.0463 30.6067C68.1484 30.2257 68.5401 29.9996 68.9211 30.1017C69.3021 30.2038 69.5283 30.5954 69.4262 30.9765C69.2315 31.7031 68.8489 32.3658 68.317 32.8977C67.785 33.4297 67.1224 33.8123 66.3958 34.0069C65.6691 34.2017 64.904 34.2017 64.1773 34.0069C63.4506 33.8123 62.788 33.4297 62.2561 32.8977C61.9771 32.6187 61.9771 32.1665 62.2561 31.8876Z" fill="#FFAD43"/>
</g>
</g>
</g>
<path d="M46.9229 55.1406L43.5245 65H41.4698L45.7511 53.625H47.0636L46.9229 55.1406ZM49.7667 65L46.3604 55.1406L46.212 53.625H47.5323L51.8292 65H49.7667ZM49.6026 60.7812V62.3359H43.4151V60.7812H49.6026ZM54.8057 58.1562V65H52.9229V56.5469H54.7198L54.8057 58.1562ZM57.3917 56.4922L57.3761 58.2422C57.2615 58.2214 57.1365 58.2057 57.0011 58.1953C56.8708 58.1849 56.7406 58.1797 56.6104 58.1797C56.2875 58.1797 56.0037 58.2266 55.7589 58.3203C55.5141 58.4089 55.3083 58.5391 55.1417 58.7109C54.9802 58.8776 54.8552 59.0807 54.7667 59.3203C54.6781 59.5599 54.6261 59.8281 54.6104 60.125L54.1807 60.1562C54.1807 59.625 54.2328 59.1328 54.337 58.6797C54.4412 58.2266 54.5974 57.8281 54.8057 57.4844C55.0193 57.1406 55.2849 56.8724 55.6026 56.6797C55.9255 56.487 56.2979 56.3906 56.7198 56.3906C56.8344 56.3906 56.9568 56.401 57.087 56.4219C57.2224 56.4427 57.324 56.4661 57.3917 56.4922ZM62.837 56.5469V57.9219H58.0714V56.5469H62.837ZM59.4464 54.4766H61.3292V62.6641C61.3292 62.9245 61.3656 63.125 61.4386 63.2656C61.5167 63.401 61.6235 63.4922 61.7589 63.5391C61.8943 63.5859 62.0531 63.6094 62.2354 63.6094C62.3656 63.6094 62.4906 63.6016 62.6104 63.5859C62.7302 63.5703 62.8266 63.5547 62.8995 63.5391L62.9073 64.9766C62.7511 65.0234 62.5688 65.0651 62.3604 65.1016C62.1573 65.138 61.9229 65.1562 61.6573 65.1562C61.225 65.1562 60.8422 65.0807 60.5089 64.9297C60.1755 64.7734 59.9151 64.5208 59.7276 64.1719C59.5401 63.8229 59.4464 63.3594 59.4464 62.7812V54.4766ZM73.0401 63.3047V59.2734C73.0401 58.9714 72.9854 58.7109 72.8761 58.4922C72.7667 58.2734 72.6 58.1042 72.3761 57.9844C72.1573 57.8646 71.8813 57.8047 71.5479 57.8047C71.2406 57.8047 70.975 57.8568 70.7511 57.9609C70.5271 58.0651 70.3526 58.2057 70.2276 58.3828C70.1026 58.5599 70.0401 58.7604 70.0401 58.9844H68.1651C68.1651 58.651 68.2458 58.3281 68.4073 58.0156C68.5688 57.7031 68.8031 57.4245 69.1104 57.1797C69.4177 56.9349 69.7849 56.7422 70.212 56.6016C70.6391 56.4609 71.1182 56.3906 71.6495 56.3906C72.2849 56.3906 72.8474 56.4974 73.337 56.7109C73.8318 56.9245 74.2198 57.2474 74.5011 57.6797C74.7875 58.1068 74.9307 58.6432 74.9307 59.2891V63.0469C74.9307 63.4323 74.9568 63.7786 75.0089 64.0859C75.0662 64.388 75.1469 64.651 75.2511 64.875V65H73.3214C73.2328 64.7969 73.1625 64.5391 73.1104 64.2266C73.0636 63.9089 73.0401 63.6016 73.0401 63.3047ZM73.3136 59.8594L73.3292 61.0234H71.9776C71.6287 61.0234 71.3214 61.0573 71.0557 61.125C70.7901 61.1875 70.5688 61.2812 70.3917 61.4062C70.2146 61.5312 70.0818 61.6823 69.9932 61.8594C69.9047 62.0365 69.8604 62.237 69.8604 62.4609C69.8604 62.6849 69.9125 62.8906 70.0167 63.0781C70.1208 63.2604 70.2719 63.4036 70.4698 63.5078C70.6729 63.612 70.9177 63.6641 71.2042 63.6641C71.5896 63.6641 71.9255 63.5859 72.212 63.4297C72.5037 63.2682 72.7328 63.0729 72.8995 62.8438C73.0662 62.6094 73.1547 62.388 73.1651 62.1797L73.7745 63.0156C73.712 63.2292 73.6052 63.4583 73.4542 63.7031C73.3031 63.9479 73.1052 64.1823 72.8604 64.4062C72.6208 64.625 72.3318 64.8047 71.9932 64.9453C71.6599 65.0859 71.2745 65.1562 70.837 65.1562C70.2849 65.1562 69.7927 65.0469 69.3604 64.8281C68.9281 64.6042 68.5896 64.3047 68.3448 63.9297C68.1 63.5495 67.9776 63.1198 67.9776 62.6406C67.9776 62.1927 68.061 61.7969 68.2276 61.4531C68.3995 61.1042 68.6495 60.8125 68.9776 60.5781C69.311 60.3438 69.7172 60.1667 70.1964 60.0469C70.6755 59.9219 71.2224 59.8594 71.837 59.8594H73.3136ZM78.7667 58.3516V65H76.8839V56.5469H78.6573L78.7667 58.3516ZM78.4307 60.4609L77.8214 60.4531C77.8266 59.8542 77.9099 59.3047 78.0714 58.8047C78.238 58.3047 78.4672 57.875 78.7589 57.5156C79.0557 57.1562 79.4099 56.8802 79.8214 56.6875C80.2328 56.4896 80.6912 56.3906 81.1964 56.3906C81.6026 56.3906 81.9698 56.4479 82.2979 56.5625C82.6313 56.6719 82.9151 56.8516 83.1495 57.1016C83.3891 57.3516 83.5714 57.6771 83.6964 58.0781C83.8214 58.474 83.8839 58.9609 83.8839 59.5391V65H81.9932V59.5312C81.9932 59.125 81.9333 58.8047 81.8136 58.5703C81.699 58.3307 81.5297 58.1615 81.3057 58.0625C81.087 57.9583 80.8136 57.9062 80.4854 57.9062C80.1625 57.9062 79.8734 57.974 79.6182 58.1094C79.363 58.2448 79.1469 58.4297 78.9698 58.6641C78.7979 58.8984 78.6651 59.1693 78.5714 59.4766C78.4776 59.7839 78.4307 60.112 78.4307 60.4609ZM90.962 63.25V53H92.8526V65H91.1417L90.962 63.25ZM85.462 60.8672V60.7031C85.462 60.0625 85.5375 59.4792 85.6886 58.9531C85.8396 58.4219 86.0583 57.9661 86.3448 57.5859C86.6313 57.2005 86.9802 56.9062 87.3917 56.7031C87.8031 56.4948 88.2667 56.3906 88.7823 56.3906C89.2927 56.3906 89.7406 56.4896 90.1261 56.6875C90.5115 56.8854 90.8396 57.1693 91.1104 57.5391C91.3813 57.9036 91.5974 58.3411 91.7589 58.8516C91.9203 59.3568 92.0349 59.9193 92.1026 60.5391V61.0625C92.0349 61.6667 91.9203 62.2188 91.7589 62.7188C91.5974 63.2188 91.3813 63.651 91.1104 64.0156C90.8396 64.3802 90.5089 64.6615 90.1182 64.8594C89.7328 65.0573 89.2823 65.1562 88.7667 65.1562C88.2563 65.1562 87.7953 65.0495 87.3839 64.8359C86.9776 64.6224 86.6313 64.3229 86.3448 63.9375C86.0583 63.5521 85.8396 63.099 85.6886 62.5781C85.5375 62.0521 85.462 61.4818 85.462 60.8672ZM87.3448 60.7031V60.8672C87.3448 61.2526 87.3787 61.612 87.4464 61.9453C87.5193 62.2786 87.6313 62.5729 87.7823 62.8281C87.9333 63.0781 88.1287 63.276 88.3682 63.4219C88.613 63.5625 88.9047 63.6328 89.2432 63.6328C89.6703 63.6328 90.0219 63.5391 90.2979 63.3516C90.574 63.1641 90.7901 62.9115 90.9464 62.5938C91.1078 62.2708 91.2172 61.9115 91.2745 61.5156V60.1016C91.2432 59.7943 91.1781 59.5078 91.0792 59.2422C90.9854 58.9766 90.8578 58.7448 90.6964 58.5469C90.5349 58.3438 90.3344 58.1875 90.0948 58.0781C89.8604 57.9635 89.5818 57.9062 89.2589 57.9062C88.9151 57.9062 88.6234 57.9792 88.3839 58.125C88.1443 58.2708 87.9464 58.4714 87.7901 58.7266C87.6391 58.9818 87.5271 59.2786 87.4542 59.6172C87.3813 59.9557 87.3448 60.3177 87.3448 60.7031ZM49.5948 85.2969H51.5479C51.4854 86.0417 51.2771 86.7057 50.9229 87.2891C50.5688 87.8672 50.0714 88.3229 49.4307 88.6562C48.7901 88.9896 48.0115 89.1562 47.0948 89.1562C46.3917 89.1562 45.7589 89.0312 45.1964 88.7812C44.6339 88.526 44.1521 88.1667 43.7511 87.7031C43.35 87.2344 43.0427 86.6693 42.8292 86.0078C42.6208 85.3464 42.5167 84.6068 42.5167 83.7891V82.8438C42.5167 82.026 42.6235 81.2865 42.837 80.625C43.0557 79.9635 43.3682 79.3984 43.7745 78.9297C44.1807 78.4557 44.6677 78.0938 45.2354 77.8438C45.8083 77.5938 46.4516 77.4688 47.1651 77.4688C48.0714 77.4688 48.837 77.6354 49.462 77.9688C50.087 78.3021 50.5714 78.763 50.9151 79.3516C51.2641 79.9401 51.4776 80.6146 51.5557 81.375H49.6026C49.5505 80.8854 49.436 80.4661 49.2589 80.1172C49.087 79.7682 48.8318 79.5026 48.4932 79.3203C48.1547 79.1328 47.712 79.0391 47.1651 79.0391C46.7172 79.0391 46.3266 79.1224 45.9932 79.2891C45.6599 79.4557 45.3813 79.7005 45.1573 80.0234C44.9333 80.3464 44.7641 80.7448 44.6495 81.2188C44.5401 81.6875 44.4854 82.224 44.4854 82.8281V83.7891C44.4854 84.362 44.5349 84.8828 44.6339 85.3516C44.738 85.8151 44.8943 86.2135 45.1026 86.5469C45.3162 86.8802 45.587 87.138 45.9151 87.3203C46.2432 87.5026 46.6365 87.5938 47.0948 87.5938C47.6521 87.5938 48.1026 87.5052 48.4464 87.3281C48.7953 87.151 49.0583 86.8932 49.2354 86.5547C49.4177 86.2109 49.5375 85.7917 49.5948 85.2969ZM58.2276 87.0078V80.5469H60.1182V89H58.337L58.2276 87.0078ZM58.4932 85.25L59.1261 85.2344C59.1261 85.8021 59.0636 86.3255 58.9386 86.8047C58.8136 87.2786 58.6208 87.6927 58.3604 88.0469C58.1 88.3958 57.7667 88.6693 57.3604 88.8672C56.9542 89.0599 56.4672 89.1562 55.8995 89.1562C55.488 89.1562 55.1104 89.0964 54.7667 88.9766C54.4229 88.8568 54.1261 88.6719 53.8761 88.4219C53.6313 88.1719 53.4412 87.8464 53.3057 87.4453C53.1703 87.0443 53.1026 86.5651 53.1026 86.0078V80.5469H54.9854V86.0234C54.9854 86.3307 55.0219 86.5885 55.0948 86.7969C55.1677 87 55.2667 87.1641 55.3917 87.2891C55.5167 87.4141 55.6625 87.5026 55.8292 87.5547C55.9958 87.6068 56.1729 87.6328 56.3604 87.6328C56.8969 87.6328 57.3188 87.5286 57.6261 87.3203C57.9386 87.1068 58.1599 86.8203 58.2901 86.4609C58.4255 86.1016 58.4932 85.6979 58.4932 85.25ZM64.0636 77V89H62.1729V77H64.0636ZM70.0011 80.5469V81.9219H65.2354V80.5469H70.0011ZM66.6104 78.4766H68.4932V86.6641C68.4932 86.9245 68.5297 87.125 68.6026 87.2656C68.6807 87.401 68.7875 87.4922 68.9229 87.5391C69.0583 87.5859 69.2172 87.6094 69.3995 87.6094C69.5297 87.6094 69.6547 87.6016 69.7745 87.5859C69.8943 87.5703 69.9906 87.5547 70.0636 87.5391L70.0714 88.9766C69.9151 89.0234 69.7328 89.0651 69.5245 89.1016C69.3214 89.138 69.087 89.1562 68.8214 89.1562C68.3891 89.1562 68.0063 89.0807 67.6729 88.9297C67.3396 88.7734 67.0792 88.5208 66.8917 88.1719C66.7042 87.8229 66.6104 87.3594 66.6104 86.7812V78.4766ZM76.5401 87.0078V80.5469H78.4307V89H76.6495L76.5401 87.0078ZM76.8057 85.25L77.4386 85.2344C77.4386 85.8021 77.3761 86.3255 77.2511 86.8047C77.1261 87.2786 76.9333 87.6927 76.6729 88.0469C76.4125 88.3958 76.0792 88.6693 75.6729 88.8672C75.2667 89.0599 74.7797 89.1562 74.212 89.1562C73.8005 89.1562 73.4229 89.0964 73.0792 88.9766C72.7354 88.8568 72.4386 88.6719 72.1886 88.4219C71.9438 88.1719 71.7537 87.8464 71.6182 87.4453C71.4828 87.0443 71.4151 86.5651 71.4151 86.0078V80.5469H73.2979V86.0234C73.2979 86.3307 73.3344 86.5885 73.4073 86.7969C73.4802 87 73.5792 87.1641 73.7042 87.2891C73.8292 87.4141 73.975 87.5026 74.1417 87.5547C74.3083 87.6068 74.4854 87.6328 74.6729 87.6328C75.2094 87.6328 75.6313 87.5286 75.9386 87.3203C76.2511 87.1068 76.4724 86.8203 76.6026 86.4609C76.738 86.1016 76.8057 85.6979 76.8057 85.25ZM82.2511 82.1562V89H80.3682V80.5469H82.1651L82.2511 82.1562ZM84.837 80.4922L84.8214 82.2422C84.7068 82.2214 84.5818 82.2057 84.4464 82.1953C84.3162 82.1849 84.1859 82.1797 84.0557 82.1797C83.7328 82.1797 83.449 82.2266 83.2042 82.3203C82.9594 82.4089 82.7537 82.5391 82.587 82.7109C82.4255 82.8776 82.3005 83.0807 82.212 83.3203C82.1234 83.5599 82.0714 83.8281 82.0557 84.125L81.6261 84.1562C81.6261 83.625 81.6781 83.1328 81.7823 82.6797C81.8865 82.2266 82.0427 81.8281 82.2511 81.4844C82.4646 81.1406 82.7302 80.8724 83.0479 80.6797C83.3708 80.487 83.7432 80.3906 84.1651 80.3906C84.2797 80.3906 84.4021 80.401 84.5323 80.4219C84.6677 80.4427 84.7693 80.4661 84.837 80.4922ZM89.587 89.1562C88.962 89.1562 88.3969 89.0547 87.8917 88.8516C87.3917 88.6432 86.9646 88.3542 86.6104 87.9844C86.2615 87.6146 85.9932 87.1797 85.8057 86.6797C85.6182 86.1797 85.5245 85.6406 85.5245 85.0625V84.75C85.5245 84.0885 85.6208 83.4896 85.8136 82.9531C86.0063 82.4167 86.2745 81.9583 86.6182 81.5781C86.962 81.1927 87.3682 80.8984 87.837 80.6953C88.3057 80.4922 88.8136 80.3906 89.3604 80.3906C89.9646 80.3906 90.4932 80.4922 90.9464 80.6953C91.3995 80.8984 91.7745 81.1849 92.0714 81.5547C92.3734 81.9193 92.5974 82.3542 92.7432 82.8594C92.8943 83.3646 92.9698 83.9219 92.9698 84.5312V85.3359H86.4386V83.9844H91.1104V83.8359C91.1 83.4974 91.0323 83.1797 90.9073 82.8828C90.7875 82.5859 90.6026 82.3464 90.3526 82.1641C90.1026 81.9818 89.7693 81.8906 89.3526 81.8906C89.0401 81.8906 88.7615 81.9583 88.5167 82.0938C88.2771 82.224 88.0766 82.4141 87.9151 82.6641C87.7537 82.9141 87.6287 83.2161 87.5401 83.5703C87.4568 83.9193 87.4151 84.3125 87.4151 84.75V85.0625C87.4151 85.4323 87.4646 85.776 87.5636 86.0938C87.6677 86.4062 87.8188 86.6797 88.0167 86.9141C88.2146 87.1484 88.4542 87.3333 88.7354 87.4688C89.0167 87.599 89.337 87.6641 89.6964 87.6641C90.1495 87.6641 90.5531 87.5729 90.9073 87.3906C91.2615 87.2083 91.5688 86.9505 91.8292 86.6172L92.8214 87.5781C92.6391 87.8438 92.4021 88.099 92.1104 88.3438C91.8188 88.5833 91.462 88.7786 91.0401 88.9297C90.6234 89.0807 90.1391 89.1562 89.587 89.1562Z" fill="#212121"/>
<defs>
<clipPath id="clip0_2_2378">
<rect width="20" height="20" fill="white" transform="translate(57.5 22)"/>
</clipPath>
<clipPath id="clip1_2_2378">
<rect width="20" height="20" fill="white" transform="translate(57.5 22)"/>
</clipPath>
<clipPath id="clip2_2_2378">
<rect width="20" height="20" fill="white" transform="translate(57.5 22)"/>
</clipPath>
</defs>
</svg>
