<svg width="135" height="112" viewBox="0 0 135 112" fill="none" xmlns="http://www.w3.org/2000/svg">
<rect width="135" height="112" rx="8" fill="#97CAD1" fill-opacity="0.08"/>
<g clip-path="url(#clip0_2_2360)">
<g clip-path="url(#clip1_2_2360)">
<g clip-path="url(#clip2_2_2360)">
<path fill-rule="evenodd" clip-rule="evenodd" d="M69.3128 40.3063C68.7287 40.4332 68.1221 40.5 67.5 40.5C66.8517 40.5 66.2203 40.4274 65.6136 40.2899L64.8281 37.7803L65.7667 36.1547H69.2985L70.06 37.9188L69.3128 40.3063ZM71.0691 39.7166C71.807 39.3748 72.4876 38.9302 73.0925 38.4012L71.4975 38.3479L71.0691 39.7166ZM74.4146 36.9446C75.2858 35.7286 75.8441 34.2732 75.9719 32.6961L73.6987 30.9574L71.8645 31.456L70.6265 35.4464L71.2273 36.838L74.4146 36.9446ZM75.9103 30.7605C75.7803 29.871 75.5126 29.0263 75.1295 28.2486L74.646 29.7934L75.9103 30.7605ZM74.0712 26.608L73.1498 29.5522L71.4263 30.0206L68.3119 27.6508V25.872L70.7491 24.1431C72.051 24.682 73.1899 25.5352 74.0712 26.608ZM68.9011 23.6149L67.685 24.4776L66.4852 23.5599C66.818 23.5204 67.1566 23.5 67.5 23.5C67.9772 23.5 68.4453 23.5393 68.9011 23.6149ZM64.8941 22.3429C64.316 22.4985 63.7583 22.7044 63.2266 22.956C62.1058 23.4864 61.0999 24.2194 60.255 25.1072L60.2536 25.1073C59.8043 25.5795 59.4006 26.0956 59.0496 26.6484L59.051 26.6484C58.0688 28.1958 57.5 30.0315 57.5 32C57.5 32.0577 57.5005 32.1153 57.5015 32.1727L57.5 32.1738C57.5102 32.7709 57.5727 33.3552 57.6831 33.9223L57.6844 33.9213C57.9144 35.1035 58.3528 36.2112 58.9596 37.2048L58.958 37.2049C59.2765 37.7264 59.6414 38.2164 60.047 38.6693L60.0486 38.6692C61.2164 39.9731 62.7214 40.9686 64.4265 41.5188C64.9717 41.6947 65.5377 41.8256 66.1194 41.9059C66.5707 41.9682 67.0315 42 67.5 42C73.0228 42 77.5 37.5228 77.5 32C77.5 26.4771 73.0228 22 67.5 22C66.5985 22 65.7249 22.1193 64.8941 22.3429ZM63.8506 39.6789L63.4985 38.5538L62.1422 38.5992C62.664 39.0233 63.237 39.3868 63.8506 39.6789ZM60.7338 37.1454L63.5164 37.0523L64.5289 35.2986L63.3562 31.5184L61.4823 31.0163L59.0451 32.8805C59.209 34.4739 59.8131 35.9367 60.7338 37.1454ZM59.0605 30.9802L60.3494 29.9944L60.3497 29.9932L59.8299 28.3322C59.4377 29.1509 59.1727 30.0421 59.0605 30.9802ZM60.8805 26.6673L61.7807 29.5433L63.7195 30.0628L66.8119 27.7097V25.6984L64.601 24.0072C63.1285 24.5414 61.8456 25.4708 60.8805 26.6673ZM69.3016 34.6547H66.3011L65.8121 34.3723L64.8039 31.1226L67.6006 28.9945L70.3974 31.1226L69.3016 34.6547Z" fill="#008294"/>
</g>
</g>
</g>
<path d="M35.7777 62.0703C35.7777 61.8359 35.7412 61.6276 35.6683 61.4453C35.6006 61.263 35.4782 61.0964 35.3011 60.9453C35.124 60.7943 34.874 60.6484 34.5511 60.5078C34.2334 60.362 33.8272 60.2135 33.3324 60.0625C32.7907 59.8958 32.2907 59.7109 31.8324 59.5078C31.3793 59.2995 30.9834 59.0599 30.6449 58.7891C30.3063 58.513 30.0433 58.1979 29.8558 57.8438C29.6683 57.4844 29.5746 57.0703 29.5746 56.6016C29.5746 56.138 29.6709 55.7161 29.8636 55.3359C30.0615 54.9557 30.3402 54.6276 30.6996 54.3516C31.0642 54.0703 31.4938 53.8542 31.9886 53.7031C32.4834 53.5469 33.0303 53.4688 33.6293 53.4688C34.473 53.4688 35.1996 53.625 35.8089 53.9375C36.4235 54.25 36.8949 54.6693 37.223 55.1953C37.5563 55.7214 37.723 56.3021 37.723 56.9375H35.7777C35.7777 56.5625 35.697 56.2318 35.5355 55.9453C35.3793 55.6536 35.1397 55.4245 34.8168 55.2578C34.499 55.0911 34.0954 55.0078 33.6058 55.0078C33.1423 55.0078 32.7569 55.0781 32.4496 55.2188C32.1423 55.3594 31.9131 55.5495 31.7621 55.7891C31.611 56.0286 31.5355 56.2995 31.5355 56.6016C31.5355 56.8151 31.585 57.0104 31.6839 57.1875C31.7829 57.3594 31.9339 57.5208 32.1371 57.6719C32.3402 57.8177 32.5954 57.9557 32.9027 58.0859C33.21 58.2161 33.572 58.3411 33.9886 58.4609C34.6188 58.6484 35.1683 58.8568 35.6371 59.0859C36.1058 59.3099 36.4964 59.5651 36.8089 59.8516C37.1214 60.138 37.3558 60.4635 37.5121 60.8281C37.6683 61.1875 37.7464 61.5964 37.7464 62.0547C37.7464 62.5339 37.6501 62.9661 37.4574 63.3516C37.2647 63.7318 36.9886 64.0573 36.6293 64.3281C36.2751 64.5938 35.848 64.7995 35.348 64.9453C34.8532 65.0859 34.3011 65.1562 33.6918 65.1562C33.1449 65.1562 32.6058 65.0833 32.0746 64.9375C31.5485 64.7917 31.0694 64.5703 30.6371 64.2734C30.2048 63.9714 29.861 63.5964 29.6058 63.1484C29.3506 62.6953 29.223 62.1667 29.223 61.5625H31.1839C31.1839 61.9323 31.2464 62.2474 31.3714 62.5078C31.5017 62.7682 31.6813 62.9818 31.9105 63.1484C32.1397 63.3099 32.4053 63.4297 32.7074 63.5078C33.0147 63.5859 33.3428 63.625 33.6918 63.625C34.1501 63.625 34.5329 63.5599 34.8402 63.4297C35.1527 63.2995 35.3871 63.1172 35.5433 62.8828C35.6996 62.6484 35.7777 62.3776 35.7777 62.0703ZM41.1839 58.1719V68.25H39.3011V56.5469H41.0355L41.1839 58.1719ZM46.6918 60.6953V60.8594C46.6918 61.474 46.6188 62.0443 46.473 62.5703C46.3324 63.0911 46.1214 63.5469 45.8402 63.9375C45.5642 64.3229 45.223 64.6224 44.8168 64.8359C44.4105 65.0495 43.9418 65.1562 43.4105 65.1562C42.8845 65.1562 42.4235 65.0599 42.0277 64.8672C41.6371 64.6693 41.3063 64.3906 41.0355 64.0312C40.7647 63.6719 40.5459 63.25 40.3793 62.7656C40.2178 62.276 40.1032 61.7396 40.0355 61.1562V60.5234C40.1032 59.9036 40.2178 59.3411 40.3793 58.8359C40.5459 58.3307 40.7647 57.8958 41.0355 57.5312C41.3063 57.1667 41.6371 56.8854 42.0277 56.6875C42.4183 56.4896 42.874 56.3906 43.3949 56.3906C43.9261 56.3906 44.3975 56.4948 44.8089 56.7031C45.2204 56.9062 45.5668 57.1979 45.848 57.5781C46.1293 57.9531 46.3402 58.4062 46.4808 58.9375C46.6214 59.4635 46.6918 60.0495 46.6918 60.6953ZM44.8089 60.8594V60.6953C44.8089 60.3047 44.7725 59.9427 44.6996 59.6094C44.6267 59.2708 44.5121 58.974 44.3558 58.7188C44.1996 58.4635 43.999 58.2656 43.7543 58.125C43.5147 57.9792 43.2256 57.9062 42.8871 57.9062C42.5537 57.9062 42.2673 57.9635 42.0277 58.0781C41.7881 58.1875 41.5876 58.3411 41.4261 58.5391C41.2647 58.737 41.1397 58.9688 41.0511 59.2344C40.9626 59.4948 40.9001 59.7786 40.8636 60.0859V61.6016C40.9261 61.9766 41.0329 62.3203 41.1839 62.6328C41.335 62.9453 41.5485 63.1953 41.8246 63.3828C42.1058 63.5651 42.4652 63.6562 42.9027 63.6562C43.2412 63.6562 43.5303 63.5833 43.7699 63.4375C44.0095 63.2917 44.2048 63.0911 44.3558 62.8359C44.5121 62.5755 44.6267 62.276 44.6996 61.9375C44.7725 61.599 44.8089 61.2396 44.8089 60.8594ZM47.9339 60.8672V60.6875C47.9339 60.0781 48.0225 59.513 48.1996 58.9922C48.3767 58.4661 48.6319 58.0104 48.9652 57.625C49.3037 57.2344 49.7152 56.9323 50.1996 56.7188C50.6892 56.5 51.2412 56.3906 51.8558 56.3906C52.4756 56.3906 53.0277 56.5 53.5121 56.7188C54.0017 56.9323 54.4157 57.2344 54.7543 57.625C55.0928 58.0104 55.3506 58.4661 55.5277 58.9922C55.7048 59.513 55.7933 60.0781 55.7933 60.6875V60.8672C55.7933 61.4766 55.7048 62.0417 55.5277 62.5625C55.3506 63.0833 55.0928 63.5391 54.7543 63.9297C54.4157 64.3151 54.0043 64.6172 53.5199 64.8359C53.0355 65.0495 52.486 65.1562 51.8714 65.1562C51.2517 65.1562 50.697 65.0495 50.2074 64.8359C49.723 64.6172 49.3115 64.3151 48.973 63.9297C48.6345 63.5391 48.3767 63.0833 48.1996 62.5625C48.0225 62.0417 47.9339 61.4766 47.9339 60.8672ZM49.8168 60.6875V60.8672C49.8168 61.2474 49.8558 61.6068 49.9339 61.9453C50.0121 62.2839 50.1345 62.5807 50.3011 62.8359C50.4678 63.0911 50.6813 63.2917 50.9418 63.4375C51.2022 63.5833 51.5121 63.6562 51.8714 63.6562C52.2204 63.6562 52.5225 63.5833 52.7777 63.4375C53.0381 63.2917 53.2517 63.0911 53.4183 62.8359C53.585 62.5807 53.7074 62.2839 53.7855 61.9453C53.8688 61.6068 53.9105 61.2474 53.9105 60.8672V60.6875C53.9105 60.3125 53.8688 59.9583 53.7855 59.625C53.7074 59.2865 53.5824 58.987 53.4105 58.7266C53.2438 58.4661 53.0303 58.263 52.7699 58.1172C52.5147 57.9661 52.21 57.8906 51.8558 57.8906C51.5017 57.8906 51.1944 57.9661 50.9339 58.1172C50.6787 58.263 50.4678 58.4661 50.3011 58.7266C50.1345 58.987 50.0121 59.2865 49.9339 59.625C49.8558 59.9583 49.8168 60.3125 49.8168 60.6875ZM59.2621 58.1562V65H57.3793V56.5469H59.1761L59.2621 58.1562ZM61.848 56.4922L61.8324 58.2422C61.7178 58.2214 61.5928 58.2057 61.4574 58.1953C61.3272 58.1849 61.197 58.1797 61.0668 58.1797C60.7438 58.1797 60.46 58.2266 60.2152 58.3203C59.9704 58.4089 59.7647 58.5391 59.598 58.7109C59.4365 58.8776 59.3115 59.0807 59.223 59.3203C59.1345 59.5599 59.0824 59.8281 59.0668 60.125L58.6371 60.1562C58.6371 59.625 58.6892 59.1328 58.7933 58.6797C58.8975 58.2266 59.0537 57.8281 59.2621 57.4844C59.4756 57.1406 59.7412 56.8724 60.0589 56.6797C60.3819 56.487 60.7543 56.3906 61.1761 56.3906C61.2907 56.3906 61.4131 56.401 61.5433 56.4219C61.6787 56.4427 61.7803 56.4661 61.848 56.4922ZM67.2933 56.5469V57.9219H62.5277V56.5469H67.2933ZM63.9027 54.4766H65.7855V62.6641C65.7855 62.9245 65.822 63.125 65.8949 63.2656C65.973 63.401 66.0798 63.4922 66.2152 63.5391C66.3506 63.5859 66.5095 63.6094 66.6918 63.6094C66.822 63.6094 66.947 63.6016 67.0668 63.5859C67.1865 63.5703 67.2829 63.5547 67.3558 63.5391L67.3636 64.9766C67.2074 65.0234 67.0251 65.0651 66.8168 65.1016C66.6136 65.138 66.3793 65.1562 66.1136 65.1562C65.6813 65.1562 65.2985 65.0807 64.9652 64.9297C64.6319 64.7734 64.3714 64.5208 64.1839 64.1719C63.9964 63.8229 63.9027 63.3594 63.9027 62.7812V54.4766ZM73.4886 62.7109C73.4886 62.5234 73.4418 62.3542 73.348 62.2031C73.2543 62.0469 73.0746 61.9062 72.8089 61.7812C72.5485 61.6562 72.1631 61.5417 71.6527 61.4375C71.2048 61.3385 70.7933 61.2214 70.4183 61.0859C70.0485 60.9453 69.7308 60.776 69.4652 60.5781C69.1996 60.3802 68.9938 60.1458 68.848 59.875C68.7022 59.6042 68.6293 59.2917 68.6293 58.9375C68.6293 58.5938 68.7048 58.2682 68.8558 57.9609C69.0069 57.6536 69.223 57.3828 69.5043 57.1484C69.7855 56.9141 70.1267 56.7292 70.5277 56.5938C70.9339 56.4583 71.3871 56.3906 71.8871 56.3906C72.5954 56.3906 73.2022 56.5104 73.7074 56.75C74.2178 56.9844 74.6084 57.3047 74.8793 57.7109C75.1501 58.112 75.2855 58.5651 75.2855 59.0703H73.4027C73.4027 58.8464 73.3454 58.638 73.2308 58.4453C73.1214 58.2474 72.9548 58.0885 72.7308 57.9688C72.5069 57.8438 72.2256 57.7812 71.8871 57.7812C71.5642 57.7812 71.2959 57.8333 71.0824 57.9375C70.874 58.0365 70.7178 58.1667 70.6136 58.3281C70.5147 58.4896 70.4652 58.6667 70.4652 58.8594C70.4652 59 70.4912 59.1276 70.5433 59.2422C70.6006 59.3516 70.6944 59.4531 70.8246 59.5469C70.9548 59.6354 71.1319 59.7188 71.3558 59.7969C71.585 59.875 71.8714 59.9505 72.2152 60.0234C72.861 60.1589 73.4157 60.3333 73.8793 60.5469C74.348 60.7552 74.7074 61.026 74.9574 61.3594C75.2074 61.6875 75.3324 62.1042 75.3324 62.6094C75.3324 62.9844 75.2517 63.3281 75.0902 63.6406C74.9339 63.9479 74.7048 64.2161 74.4027 64.4453C74.1006 64.6693 73.7386 64.8438 73.3168 64.9688C72.9001 65.0938 72.4313 65.1562 71.9105 65.1562C71.1449 65.1562 70.4964 65.0208 69.9652 64.75C69.4339 64.474 69.0303 64.1224 68.7543 63.6953C68.4834 63.263 68.348 62.8151 68.348 62.3516H70.1683C70.1892 62.7005 70.2855 62.9792 70.4574 63.1875C70.6345 63.3906 70.8532 63.5391 71.1136 63.6328C71.3793 63.7214 71.6527 63.7656 71.9339 63.7656C72.2725 63.7656 72.5563 63.7214 72.7855 63.6328C73.0147 63.5391 73.1892 63.4141 73.3089 63.2578C73.4287 63.0964 73.4886 62.9141 73.4886 62.7109ZM85.7308 63.3047V59.2734C85.7308 58.9714 85.6761 58.7109 85.5668 58.4922C85.4574 58.2734 85.2907 58.1042 85.0668 57.9844C84.848 57.8646 84.572 57.8047 84.2386 57.8047C83.9313 57.8047 83.6657 57.8568 83.4418 57.9609C83.2178 58.0651 83.0433 58.2057 82.9183 58.3828C82.7933 58.5599 82.7308 58.7604 82.7308 58.9844H80.8558C80.8558 58.651 80.9365 58.3281 81.098 58.0156C81.2595 57.7031 81.4938 57.4245 81.8011 57.1797C82.1084 56.9349 82.4756 56.7422 82.9027 56.6016C83.3298 56.4609 83.8089 56.3906 84.3402 56.3906C84.9756 56.3906 85.5381 56.4974 86.0277 56.7109C86.5225 56.9245 86.9105 57.2474 87.1918 57.6797C87.4782 58.1068 87.6214 58.6432 87.6214 59.2891V63.0469C87.6214 63.4323 87.6475 63.7786 87.6996 64.0859C87.7569 64.388 87.8376 64.651 87.9418 64.875V65H86.0121C85.9235 64.7969 85.8532 64.5391 85.8011 64.2266C85.7543 63.9089 85.7308 63.6016 85.7308 63.3047ZM86.0043 59.8594L86.0199 61.0234H84.6683C84.3194 61.0234 84.0121 61.0573 83.7464 61.125C83.4808 61.1875 83.2595 61.2812 83.0824 61.4062C82.9053 61.5312 82.7725 61.6823 82.6839 61.8594C82.5954 62.0365 82.5511 62.237 82.5511 62.4609C82.5511 62.6849 82.6032 62.8906 82.7074 63.0781C82.8115 63.2604 82.9626 63.4036 83.1605 63.5078C83.3636 63.612 83.6084 63.6641 83.8949 63.6641C84.2803 63.6641 84.6162 63.5859 84.9027 63.4297C85.1944 63.2682 85.4235 63.0729 85.5902 62.8438C85.7569 62.6094 85.8454 62.388 85.8558 62.1797L86.4652 63.0156C86.4027 63.2292 86.2959 63.4583 86.1449 63.7031C85.9938 63.9479 85.7959 64.1823 85.5511 64.4062C85.3115 64.625 85.0225 64.8047 84.6839 64.9453C84.3506 65.0859 83.9652 65.1562 83.5277 65.1562C82.9756 65.1562 82.4834 65.0469 82.0511 64.8281C81.6188 64.6042 81.2803 64.3047 81.0355 63.9297C80.7907 63.5495 80.6683 63.1198 80.6683 62.6406C80.6683 62.1927 80.7517 61.7969 80.9183 61.4531C81.0902 61.1042 81.3402 60.8125 81.6683 60.5781C82.0017 60.3438 82.4079 60.1667 82.8871 60.0469C83.3662 59.9219 83.9131 59.8594 84.5277 59.8594H86.0043ZM91.4574 58.3516V65H89.5746V56.5469H91.348L91.4574 58.3516ZM91.1214 60.4609L90.5121 60.4531C90.5173 59.8542 90.6006 59.3047 90.7621 58.8047C90.9287 58.3047 91.1579 57.875 91.4496 57.5156C91.7464 57.1562 92.1006 56.8802 92.5121 56.6875C92.9235 56.4896 93.3819 56.3906 93.8871 56.3906C94.2933 56.3906 94.6605 56.4479 94.9886 56.5625C95.322 56.6719 95.6058 56.8516 95.8402 57.1016C96.0798 57.3516 96.2621 57.6771 96.3871 58.0781C96.5121 58.474 96.5746 58.9609 96.5746 59.5391V65H94.6839V59.5312C94.6839 59.125 94.624 58.8047 94.5043 58.5703C94.3897 58.3307 94.2204 58.1615 93.9964 58.0625C93.7777 57.9583 93.5043 57.9062 93.1761 57.9062C92.8532 57.9062 92.5642 57.974 92.3089 58.1094C92.0537 58.2448 91.8376 58.4297 91.6605 58.6641C91.4886 58.8984 91.3558 59.1693 91.2621 59.4766C91.1683 59.7839 91.1214 60.112 91.1214 60.4609ZM103.653 63.25V53H105.543V65H103.832L103.653 63.25ZM98.1527 60.8672V60.7031C98.1527 60.0625 98.2282 59.4792 98.3793 58.9531C98.5303 58.4219 98.749 57.9661 99.0355 57.5859C99.322 57.2005 99.6709 56.9062 100.082 56.7031C100.494 56.4948 100.957 56.3906 101.473 56.3906C101.983 56.3906 102.431 56.4896 102.817 56.6875C103.202 56.8854 103.53 57.1693 103.801 57.5391C104.072 57.9036 104.288 58.3411 104.45 58.8516C104.611 59.3568 104.726 59.9193 104.793 60.5391V61.0625C104.726 61.6667 104.611 62.2188 104.45 62.7188C104.288 63.2188 104.072 63.651 103.801 64.0156C103.53 64.3802 103.2 64.6615 102.809 64.8594C102.424 65.0573 101.973 65.1562 101.457 65.1562C100.947 65.1562 100.486 65.0495 100.075 64.8359C99.6683 64.6224 99.322 64.3229 99.0355 63.9375C98.749 63.5521 98.5303 63.099 98.3793 62.5781C98.2282 62.0521 98.1527 61.4818 98.1527 60.8672ZM100.036 60.7031V60.8672C100.036 61.2526 100.069 61.612 100.137 61.9453C100.21 62.2786 100.322 62.5729 100.473 62.8281C100.624 63.0781 100.819 63.276 101.059 63.4219C101.304 63.5625 101.595 63.6328 101.934 63.6328C102.361 63.6328 102.713 63.5391 102.989 63.3516C103.265 63.1641 103.481 62.9115 103.637 62.5938C103.799 62.2708 103.908 61.9115 103.965 61.5156V60.1016C103.934 59.7943 103.869 59.5078 103.77 59.2422C103.676 58.9766 103.549 58.7448 103.387 58.5469C103.226 58.3438 103.025 58.1875 102.786 58.0781C102.551 57.9635 102.272 57.9062 101.95 57.9062C101.606 57.9062 101.314 57.9792 101.075 58.125C100.835 58.2708 100.637 58.4714 100.481 58.7266C100.33 58.9818 100.218 59.2786 100.145 59.6172C100.072 59.9557 100.036 60.3177 100.036 60.7031ZM44.6214 77.625V89H42.6605V77.625H44.6214ZM49.2621 82.6016V84.1562H44.1214V82.6016H49.2621ZM49.9105 77.625V79.1875H44.1214V77.625H49.9105ZM53.3011 80.5469V89H51.4105V80.5469H53.3011ZM51.2855 78.3281C51.2855 78.0417 51.3793 77.8047 51.5668 77.6172C51.7595 77.4245 52.0251 77.3281 52.3636 77.3281C52.697 77.3281 52.96 77.4245 53.1527 77.6172C53.3454 77.8047 53.4418 78.0417 53.4418 78.3281C53.4418 78.6094 53.3454 78.8438 53.1527 79.0312C52.96 79.2188 52.697 79.3125 52.3636 79.3125C52.0251 79.3125 51.7595 79.2188 51.5668 79.0312C51.3793 78.8438 51.2855 78.6094 51.2855 78.3281ZM59.2386 80.5469V81.9219H54.473V80.5469H59.2386ZM55.848 78.4766H57.7308V86.6641C57.7308 86.9245 57.7673 87.125 57.8402 87.2656C57.9183 87.401 58.0251 87.4922 58.1605 87.5391C58.2959 87.5859 58.4548 87.6094 58.6371 87.6094C58.7673 87.6094 58.8923 87.6016 59.0121 87.5859C59.1319 87.5703 59.2282 87.5547 59.3011 87.5391L59.3089 88.9766C59.1527 89.0234 58.9704 89.0651 58.7621 89.1016C58.5589 89.138 58.3246 89.1562 58.0589 89.1562C57.6267 89.1562 57.2438 89.0807 56.9105 88.9297C56.5772 88.7734 56.3168 88.5208 56.1293 88.1719C55.9418 87.8229 55.848 87.3594 55.848 86.7812V78.4766ZM62.5589 82.3516V89H60.6761V80.5469H62.4496L62.5589 82.3516ZM62.223 84.4609L61.6136 84.4531C61.6188 83.8542 61.7022 83.3047 61.8636 82.8047C62.0303 82.3047 62.2595 81.875 62.5511 81.5156C62.848 81.1562 63.2022 80.8802 63.6136 80.6875C64.0251 80.4896 64.4834 80.3906 64.9886 80.3906C65.3949 80.3906 65.7621 80.4479 66.0902 80.5625C66.4235 80.6719 66.7074 80.8516 66.9418 81.1016C67.1813 81.3516 67.3636 81.6771 67.4886 82.0781C67.6136 82.474 67.6761 82.9609 67.6761 83.5391V89H65.7855V83.5312C65.7855 83.125 65.7256 82.8047 65.6058 82.5703C65.4912 82.3307 65.322 82.1615 65.098 82.0625C64.8793 81.9583 64.6058 81.9062 64.2777 81.9062C63.9548 81.9062 63.6657 81.974 63.4105 82.1094C63.1553 82.2448 62.9392 82.4297 62.7621 82.6641C62.5902 82.8984 62.4574 83.1693 62.3636 83.4766C62.2699 83.7839 62.223 84.112 62.223 84.4609ZM73.3246 89.1562C72.6996 89.1562 72.1345 89.0547 71.6293 88.8516C71.1293 88.6432 70.7022 88.3542 70.348 87.9844C69.999 87.6146 69.7308 87.1797 69.5433 86.6797C69.3558 86.1797 69.2621 85.6406 69.2621 85.0625V84.75C69.2621 84.0885 69.3584 83.4896 69.5511 82.9531C69.7438 82.4167 70.0121 81.9583 70.3558 81.5781C70.6996 81.1927 71.1058 80.8984 71.5746 80.6953C72.0433 80.4922 72.5511 80.3906 73.098 80.3906C73.7022 80.3906 74.2308 80.4922 74.6839 80.6953C75.1371 80.8984 75.5121 81.1849 75.8089 81.5547C76.111 81.9193 76.335 82.3542 76.4808 82.8594C76.6319 83.3646 76.7074 83.9219 76.7074 84.5312V85.3359H70.1761V83.9844H74.848V83.8359C74.8376 83.4974 74.7699 83.1797 74.6449 82.8828C74.5251 82.5859 74.3402 82.3464 74.0902 82.1641C73.8402 81.9818 73.5069 81.8906 73.0902 81.8906C72.7777 81.8906 72.499 81.9583 72.2543 82.0938C72.0147 82.224 71.8142 82.4141 71.6527 82.6641C71.4912 82.9141 71.3662 83.2161 71.2777 83.5703C71.1944 83.9193 71.1527 84.3125 71.1527 84.75V85.0625C71.1527 85.4323 71.2022 85.776 71.3011 86.0938C71.4053 86.4062 71.5563 86.6797 71.7543 86.9141C71.9522 87.1484 72.1918 87.3333 72.473 87.4688C72.7543 87.599 73.0746 87.6641 73.4339 87.6641C73.8871 87.6641 74.2907 87.5729 74.6449 87.3906C74.999 87.2083 75.3063 86.9505 75.5668 86.6172L76.5589 87.5781C76.3767 87.8438 76.1397 88.099 75.848 88.3438C75.5563 88.5833 75.1996 88.7786 74.7777 88.9297C74.361 89.0807 73.8767 89.1562 73.3246 89.1562ZM82.9183 86.7109C82.9183 86.5234 82.8714 86.3542 82.7777 86.2031C82.6839 86.0469 82.5043 85.9062 82.2386 85.7812C81.9782 85.6562 81.5928 85.5417 81.0824 85.4375C80.6345 85.3385 80.223 85.2214 79.848 85.0859C79.4782 84.9453 79.1605 84.776 78.8949 84.5781C78.6293 84.3802 78.4235 84.1458 78.2777 83.875C78.1319 83.6042 78.0589 83.2917 78.0589 82.9375C78.0589 82.5938 78.1345 82.2682 78.2855 81.9609C78.4365 81.6536 78.6527 81.3828 78.9339 81.1484C79.2152 80.9141 79.5563 80.7292 79.9574 80.5938C80.3636 80.4583 80.8168 80.3906 81.3168 80.3906C82.0251 80.3906 82.6319 80.5104 83.1371 80.75C83.6475 80.9844 84.0381 81.3047 84.3089 81.7109C84.5798 82.112 84.7152 82.5651 84.7152 83.0703H82.8324C82.8324 82.8464 82.7751 82.638 82.6605 82.4453C82.5511 82.2474 82.3845 82.0885 82.1605 81.9688C81.9365 81.8438 81.6553 81.7812 81.3168 81.7812C80.9938 81.7812 80.7256 81.8333 80.5121 81.9375C80.3037 82.0365 80.1475 82.1667 80.0433 82.3281C79.9444 82.4896 79.8949 82.6667 79.8949 82.8594C79.8949 83 79.9209 83.1276 79.973 83.2422C80.0303 83.3516 80.124 83.4531 80.2543 83.5469C80.3845 83.6354 80.5615 83.7188 80.7855 83.7969C81.0147 83.875 81.3011 83.9505 81.6449 84.0234C82.2907 84.1589 82.8454 84.3333 83.3089 84.5469C83.7777 84.7552 84.1371 85.026 84.3871 85.3594C84.6371 85.6875 84.7621 86.1042 84.7621 86.6094C84.7621 86.9844 84.6813 87.3281 84.5199 87.6406C84.3636 87.9479 84.1345 88.2161 83.8324 88.4453C83.5303 88.6693 83.1683 88.8438 82.7464 88.9688C82.3298 89.0938 81.861 89.1562 81.3402 89.1562C80.5746 89.1562 79.9261 89.0208 79.3949 88.75C78.8636 88.474 78.46 88.1224 78.1839 87.6953C77.9131 87.263 77.7777 86.8151 77.7777 86.3516H79.598C79.6188 86.7005 79.7152 86.9792 79.8871 87.1875C80.0642 87.3906 80.2829 87.5391 80.5433 87.6328C80.8089 87.7214 81.0824 87.7656 81.3636 87.7656C81.7022 87.7656 81.986 87.7214 82.2152 87.6328C82.4444 87.5391 82.6188 87.4141 82.7386 87.2578C82.8584 87.0964 82.9183 86.9141 82.9183 86.7109ZM91.1527 86.7109C91.1527 86.5234 91.1058 86.3542 91.0121 86.2031C90.9183 86.0469 90.7386 85.9062 90.473 85.7812C90.2126 85.6562 89.8272 85.5417 89.3168 85.4375C88.8688 85.3385 88.4574 85.2214 88.0824 85.0859C87.7126 84.9453 87.3949 84.776 87.1293 84.5781C86.8636 84.3802 86.6579 84.1458 86.5121 83.875C86.3662 83.6042 86.2933 83.2917 86.2933 82.9375C86.2933 82.5938 86.3688 82.2682 86.5199 81.9609C86.6709 81.6536 86.8871 81.3828 87.1683 81.1484C87.4496 80.9141 87.7907 80.7292 88.1918 80.5938C88.598 80.4583 89.0511 80.3906 89.5511 80.3906C90.2595 80.3906 90.8662 80.5104 91.3714 80.75C91.8819 80.9844 92.2725 81.3047 92.5433 81.7109C92.8142 82.112 92.9496 82.5651 92.9496 83.0703H91.0668C91.0668 82.8464 91.0095 82.638 90.8949 82.4453C90.7855 82.2474 90.6188 82.0885 90.3949 81.9688C90.1709 81.8438 89.8897 81.7812 89.5511 81.7812C89.2282 81.7812 88.96 81.8333 88.7464 81.9375C88.5381 82.0365 88.3819 82.1667 88.2777 82.3281C88.1787 82.4896 88.1293 82.6667 88.1293 82.8594C88.1293 83 88.1553 83.1276 88.2074 83.2422C88.2647 83.3516 88.3584 83.4531 88.4886 83.5469C88.6188 83.6354 88.7959 83.7188 89.0199 83.7969C89.249 83.875 89.5355 83.9505 89.8793 84.0234C90.5251 84.1589 91.0798 84.3333 91.5433 84.5469C92.0121 84.7552 92.3714 85.026 92.6214 85.3594C92.8714 85.6875 92.9964 86.1042 92.9964 86.6094C92.9964 86.9844 92.9157 87.3281 92.7543 87.6406C92.598 87.9479 92.3688 88.2161 92.0668 88.4453C91.7647 88.6693 91.4027 88.8438 90.9808 88.9688C90.5642 89.0938 90.0954 89.1562 89.5746 89.1562C88.8089 89.1562 88.1605 89.0208 87.6293 88.75C87.098 88.474 86.6944 88.1224 86.4183 87.6953C86.1475 87.263 86.0121 86.8151 86.0121 86.3516H87.8324C87.8532 86.7005 87.9496 86.9792 88.1214 87.1875C88.2985 87.3906 88.5173 87.5391 88.7777 87.6328C89.0433 87.7214 89.3168 87.7656 89.598 87.7656C89.9365 87.7656 90.2204 87.7214 90.4496 87.6328C90.6787 87.5391 90.8532 87.4141 90.973 87.2578C91.0928 87.0964 91.1527 86.9141 91.1527 86.7109Z" fill="#212121"/>
<defs>
<clipPath id="clip0_2_2360">
<rect width="20" height="20" fill="white" transform="translate(57.5 22)"/>
</clipPath>
<clipPath id="clip1_2_2360">
<rect width="20" height="20" fill="white" transform="translate(57.5 22)"/>
</clipPath>
<clipPath id="clip2_2_2360">
<rect width="20" height="20" fill="white" transform="translate(57.5 22)"/>
</clipPath>
</defs>
</svg>
