<svg width="135" height="112" viewBox="0 0 135 112" fill="none" xmlns="http://www.w3.org/2000/svg">
<rect width="135" height="112" rx="8" fill="#97CAD1" fill-opacity="0.08"/>
<g clip-path="url(#clip0_2_2354)">
<g clip-path="url(#clip1_2_2354)">
<path fill-rule="evenodd" clip-rule="evenodd" d="M63.4806 24.2328L64.4342 25.2546C64.4774 25.2862 64.5186 25.3221 64.5574 25.3626L65.9404 26.8067L67.0873 24.2328L63.4806 24.2328ZM61.77 24.3985L63.0178 25.7356L59.01 34.4472C58.8534 34.7876 58.9217 35.1894 59.1821 35.4588L60.5249 36.8484C60.5453 36.8774 60.5682 36.9052 60.5937 36.9315L64.2598 40.7116C64.5594 41.0205 64.9714 41.1948 65.4018 41.1948H70.2446C70.5852 41.1948 70.8673 40.9453 70.9183 40.619C71.0173 40.5562 71.1065 40.4725 71.1789 40.3679L75.8745 33.5877C76.2624 33.0276 75.9176 32.277 75.2787 32.1731L74.1855 28.8174C73.9894 28.2157 73.2538 27.9934 72.7573 28.3859L68.3023 31.9078C68.2073 31.9828 68.1333 32.0687 68.0783 32.161H65.16C65.1242 32.161 65.0891 32.1629 65.0549 32.1667L66.7102 28.4245C66.7392 28.359 66.7599 28.2914 66.7726 28.2229C66.8175 28.1655 66.8565 28.1012 66.888 28.0304L68.6178 24.1482C68.8857 23.547 68.4456 22.8691 67.7874 22.8691L62.4346 22.8692C61.6397 22.8692 61.2277 23.8174 61.77 24.3985ZM69.2652 39.8312L64.4423 33.6281C64.435 33.6187 64.4279 33.6093 64.421 33.5997L62.8051 37.2529L65.2387 39.7622C65.2815 39.8063 65.3403 39.8312 65.4018 39.8312H69.2652ZM60.3787 34.7347L64.0232 26.8129L65.3182 28.2005L61.7844 36.1895L60.3787 34.7347ZM66.0891 33.5246L70.4103 39.0826L74.2557 33.5301H68.866C68.8305 33.5301 68.7958 33.5282 68.762 33.5246H66.0891ZM73.8406 32.161H70.1808L73.0911 29.8603L73.8406 32.161Z" fill="#FFAD43"/>
</g>
</g>
<path d="M31.3373 58.375V59.9297H25.2982V58.375H31.3373ZM25.7826 53.625V65H23.8216V53.625H25.7826ZM32.8451 53.625V65H30.892V53.625H32.8451ZM34.6341 60.8672V60.6875C34.6341 60.0781 34.7227 59.513 34.8998 58.9922C35.0768 58.4661 35.3321 58.0104 35.6654 57.625C36.0039 57.2344 36.4154 56.9323 36.8998 56.7188C37.3893 56.5 37.9414 56.3906 38.556 56.3906C39.1758 56.3906 39.7279 56.5 40.2123 56.7188C40.7018 56.9323 41.1159 57.2344 41.4545 57.625C41.793 58.0104 42.0508 58.4661 42.2279 58.9922C42.405 59.513 42.4935 60.0781 42.4935 60.6875V60.8672C42.4935 61.4766 42.405 62.0417 42.2279 62.5625C42.0508 63.0833 41.793 63.5391 41.4545 63.9297C41.1159 64.3151 40.7045 64.6172 40.2201 64.8359C39.7357 65.0495 39.1862 65.1562 38.5716 65.1562C37.9518 65.1562 37.3972 65.0495 36.9076 64.8359C36.4232 64.6172 36.0117 64.3151 35.6732 63.9297C35.3347 63.5391 35.0768 63.0833 34.8998 62.5625C34.7227 62.0417 34.6341 61.4766 34.6341 60.8672ZM36.517 60.6875V60.8672C36.517 61.2474 36.556 61.6068 36.6341 61.9453C36.7123 62.2839 36.8347 62.5807 37.0013 62.8359C37.168 63.0911 37.3815 63.2917 37.642 63.4375C37.9024 63.5833 38.2123 63.6562 38.5716 63.6562C38.9206 63.6562 39.2227 63.5833 39.4779 63.4375C39.7383 63.2917 39.9518 63.0911 40.1185 62.8359C40.2852 62.5807 40.4076 62.2839 40.4857 61.9453C40.569 61.6068 40.6107 61.2474 40.6107 60.8672V60.6875C40.6107 60.3125 40.569 59.9583 40.4857 59.625C40.4076 59.2865 40.2826 58.987 40.1107 58.7266C39.944 58.4661 39.7305 58.263 39.4701 58.1172C39.2149 57.9661 38.9102 57.8906 38.556 57.8906C38.2018 57.8906 37.8946 57.9661 37.6341 58.1172C37.3789 58.263 37.168 58.4661 37.0013 58.7266C36.8347 58.987 36.7123 59.2865 36.6341 59.625C36.556 59.9583 36.517 60.3125 36.517 60.6875ZM44.0795 53H45.9623V63.1953L45.7826 65H44.0795V53ZM51.4779 60.6953V60.8594C51.4779 61.4844 51.4076 62.0599 51.267 62.5859C51.1315 63.1068 50.9232 63.5599 50.642 63.9453C50.3659 64.3307 50.0222 64.6302 49.6107 64.8438C49.2045 65.0521 48.7331 65.1562 48.1966 65.1562C47.6706 65.1562 47.2123 65.0573 46.8216 64.8594C46.431 64.6615 46.1029 64.3802 45.8373 64.0156C45.5768 63.651 45.3659 63.2161 45.2045 62.7109C45.043 62.2057 44.9284 61.6484 44.8607 61.0391V60.5156C44.9284 59.901 45.043 59.3438 45.2045 58.8438C45.3659 58.3385 45.5768 57.9036 45.8373 57.5391C46.1029 57.1693 46.4284 56.8854 46.8138 56.6875C47.2045 56.4896 47.6602 56.3906 48.181 56.3906C48.7227 56.3906 49.1992 56.4948 49.6107 56.7031C50.0274 56.9115 50.3737 57.2083 50.6498 57.5938C50.9258 57.974 51.1315 58.4271 51.267 58.9531C51.4076 59.4792 51.4779 60.0599 51.4779 60.6953ZM49.5951 60.8594V60.6953C49.5951 60.3151 49.5638 59.9583 49.5013 59.625C49.4388 59.2865 49.3347 58.9896 49.1888 58.7344C49.0482 58.4792 48.8555 58.2786 48.6107 58.1328C48.3711 57.9818 48.0716 57.9062 47.7123 57.9062C47.3789 57.9062 47.0925 57.9635 46.8529 58.0781C46.6133 58.1927 46.4128 58.349 46.2513 58.5469C46.0899 58.7448 45.9623 58.974 45.8685 59.2344C45.78 59.4948 45.7201 59.776 45.6888 60.0781V61.4922C45.7357 61.8828 45.8347 62.2422 45.9857 62.5703C46.142 62.8932 46.3607 63.1536 46.642 63.3516C46.9232 63.5443 47.2852 63.6406 47.7279 63.6406C48.0768 63.6406 48.3711 63.5703 48.6107 63.4297C48.8503 63.2891 49.0404 63.0938 49.181 62.8438C49.3268 62.5885 49.431 62.2917 49.4935 61.9531C49.5612 61.6146 49.5951 61.25 49.5951 60.8594ZM53.0795 53H54.9623V63.1953L54.7826 65H53.0795V53ZM60.4779 60.6953V60.8594C60.4779 61.4844 60.4076 62.0599 60.267 62.5859C60.1315 63.1068 59.9232 63.5599 59.642 63.9453C59.3659 64.3307 59.0222 64.6302 58.6107 64.8438C58.2045 65.0521 57.7331 65.1562 57.1966 65.1562C56.6706 65.1562 56.2123 65.0573 55.8216 64.8594C55.431 64.6615 55.1029 64.3802 54.8373 64.0156C54.5768 63.651 54.3659 63.2161 54.2045 62.7109C54.043 62.2057 53.9284 61.6484 53.8607 61.0391V60.5156C53.9284 59.901 54.043 59.3438 54.2045 58.8438C54.3659 58.3385 54.5768 57.9036 54.8373 57.5391C55.1029 57.1693 55.4284 56.8854 55.8138 56.6875C56.2045 56.4896 56.6602 56.3906 57.181 56.3906C57.7227 56.3906 58.1992 56.4948 58.6107 56.7031C59.0274 56.9115 59.3737 57.2083 59.6498 57.5938C59.9258 57.974 60.1315 58.4271 60.267 58.9531C60.4076 59.4792 60.4779 60.0599 60.4779 60.6953ZM58.5951 60.8594V60.6953C58.5951 60.3151 58.5638 59.9583 58.5013 59.625C58.4388 59.2865 58.3347 58.9896 58.1888 58.7344C58.0482 58.4792 57.8555 58.2786 57.6107 58.1328C57.3711 57.9818 57.0716 57.9062 56.7123 57.9062C56.3789 57.9062 56.0925 57.9635 55.8529 58.0781C55.6133 58.1927 55.4128 58.349 55.2513 58.5469C55.0899 58.7448 54.9623 58.974 54.8685 59.2344C54.78 59.4948 54.7201 59.776 54.6888 60.0781V61.4922C54.7357 61.8828 54.8347 62.2422 54.9857 62.5703C55.142 62.8932 55.3607 63.1536 55.642 63.3516C55.9232 63.5443 56.2852 63.6406 56.7279 63.6406C57.0768 63.6406 57.3711 63.5703 57.6107 63.4297C57.8503 63.2891 58.0404 63.0938 58.181 62.8438C58.3268 62.5885 58.431 62.2917 58.4935 61.9531C58.5612 61.6146 58.5951 61.25 58.5951 60.8594ZM64.0873 56.5469V65H62.1966V56.5469H64.0873ZM62.0716 54.3281C62.0716 54.0417 62.1654 53.8047 62.3529 53.6172C62.5456 53.4245 62.8112 53.3281 63.1498 53.3281C63.4831 53.3281 63.7461 53.4245 63.9388 53.6172C64.1315 53.8047 64.2279 54.0417 64.2279 54.3281C64.2279 54.6094 64.1315 54.8438 63.9388 55.0312C63.7461 55.2188 63.4831 55.3125 63.1498 55.3125C62.8112 55.3125 62.5456 55.2188 62.3529 55.0312C62.1654 54.8438 62.0716 54.6094 62.0716 54.3281ZM69.8763 65.1562C69.2513 65.1562 68.6862 65.0547 68.181 64.8516C67.681 64.6432 67.2539 64.3542 66.8998 63.9844C66.5508 63.6146 66.2826 63.1797 66.0951 62.6797C65.9076 62.1797 65.8138 61.6406 65.8138 61.0625V60.75C65.8138 60.0885 65.9102 59.4896 66.1029 58.9531C66.2956 58.4167 66.5638 57.9583 66.9076 57.5781C67.2513 57.1927 67.6576 56.8984 68.1263 56.6953C68.5951 56.4922 69.1029 56.3906 69.6498 56.3906C70.2539 56.3906 70.7826 56.4922 71.2357 56.6953C71.6888 56.8984 72.0638 57.1849 72.3607 57.5547C72.6628 57.9193 72.8867 58.3542 73.0326 58.8594C73.1836 59.3646 73.2591 59.9219 73.2591 60.5312V61.3359H66.7279V59.9844H71.3998V59.8359C71.3893 59.4974 71.3216 59.1797 71.1966 58.8828C71.0768 58.5859 70.892 58.3464 70.642 58.1641C70.392 57.9818 70.0586 57.8906 69.642 57.8906C69.3295 57.8906 69.0508 57.9583 68.806 58.0938C68.5664 58.224 68.3659 58.4141 68.2045 58.6641C68.043 58.9141 67.918 59.2161 67.8295 59.5703C67.7461 59.9193 67.7045 60.3125 67.7045 60.75V61.0625C67.7045 61.4323 67.7539 61.776 67.8529 62.0938C67.9571 62.4062 68.1081 62.6797 68.306 62.9141C68.5039 63.1484 68.7435 63.3333 69.0248 63.4688C69.306 63.599 69.6263 63.6641 69.9857 63.6641C70.4388 63.6641 70.8425 63.5729 71.1966 63.3906C71.5508 63.2083 71.8581 62.9505 72.1185 62.6172L73.1107 63.5781C72.9284 63.8438 72.6914 64.099 72.3998 64.3438C72.1081 64.5833 71.7513 64.7786 71.3295 64.9297C70.9128 65.0807 70.4284 65.1562 69.8763 65.1562ZM79.4701 62.7109C79.4701 62.5234 79.4232 62.3542 79.3295 62.2031C79.2357 62.0469 79.056 61.9062 78.7904 61.7812C78.53 61.6562 78.1446 61.5417 77.6341 61.4375C77.1862 61.3385 76.7748 61.2214 76.3998 61.0859C76.03 60.9453 75.7123 60.776 75.4466 60.5781C75.181 60.3802 74.9753 60.1458 74.8295 59.875C74.6836 59.6042 74.6107 59.2917 74.6107 58.9375C74.6107 58.5938 74.6862 58.2682 74.8373 57.9609C74.9883 57.6536 75.2045 57.3828 75.4857 57.1484C75.767 56.9141 76.1081 56.7292 76.5091 56.5938C76.9154 56.4583 77.3685 56.3906 77.8685 56.3906C78.5768 56.3906 79.1836 56.5104 79.6888 56.75C80.1992 56.9844 80.5899 57.3047 80.8607 57.7109C81.1315 58.112 81.267 58.5651 81.267 59.0703H79.3841C79.3841 58.8464 79.3268 58.638 79.2123 58.4453C79.1029 58.2474 78.9362 58.0885 78.7123 57.9688C78.4883 57.8438 78.2071 57.7812 77.8685 57.7812C77.5456 57.7812 77.2774 57.8333 77.0638 57.9375C76.8555 58.0365 76.6992 58.1667 76.5951 58.3281C76.4961 58.4896 76.4466 58.6667 76.4466 58.8594C76.4466 59 76.4727 59.1276 76.5248 59.2422C76.5821 59.3516 76.6758 59.4531 76.806 59.5469C76.9362 59.6354 77.1133 59.7188 77.3373 59.7969C77.5664 59.875 77.8529 59.9505 78.1966 60.0234C78.8425 60.1589 79.3972 60.3333 79.8607 60.5469C80.3295 60.7552 80.6888 61.026 80.9388 61.3594C81.1888 61.6875 81.3138 62.1042 81.3138 62.6094C81.3138 62.9844 81.2331 63.3281 81.0716 63.6406C80.9154 63.9479 80.6862 64.2161 80.3841 64.4453C80.0821 64.6693 79.7201 64.8438 79.2982 64.9688C78.8815 65.0938 78.4128 65.1562 77.892 65.1562C77.1263 65.1562 76.4779 65.0208 75.9466 64.75C75.4154 64.474 75.0117 64.1224 74.7357 63.6953C74.4649 63.263 74.3295 62.8151 74.3295 62.3516H76.1498C76.1706 62.7005 76.267 62.9792 76.4388 63.1875C76.6159 63.3906 76.8347 63.5391 77.0951 63.6328C77.3607 63.7214 77.6341 63.7656 77.9154 63.7656C78.2539 63.7656 78.5378 63.7214 78.767 63.6328C78.9961 63.5391 79.1706 63.4141 79.2904 63.2578C79.4102 63.0964 79.4701 62.9141 79.4701 62.7109ZM91.7123 63.3047V59.2734C91.7123 58.9714 91.6576 58.7109 91.5482 58.4922C91.4388 58.2734 91.2722 58.1042 91.0482 57.9844C90.8295 57.8646 90.5534 57.8047 90.2201 57.8047C89.9128 57.8047 89.6472 57.8568 89.4232 57.9609C89.1992 58.0651 89.0248 58.2057 88.8998 58.3828C88.7748 58.5599 88.7123 58.7604 88.7123 58.9844H86.8373C86.8373 58.651 86.918 58.3281 87.0795 58.0156C87.2409 57.7031 87.4753 57.4245 87.7826 57.1797C88.0899 56.9349 88.4571 56.7422 88.8841 56.6016C89.3112 56.4609 89.7904 56.3906 90.3216 56.3906C90.9571 56.3906 91.5196 56.4974 92.0091 56.7109C92.5039 56.9245 92.892 57.2474 93.1732 57.6797C93.4597 58.1068 93.6029 58.6432 93.6029 59.2891V63.0469C93.6029 63.4323 93.6289 63.7786 93.681 64.0859C93.7383 64.388 93.819 64.651 93.9232 64.875V65H91.9935C91.905 64.7969 91.8347 64.5391 91.7826 64.2266C91.7357 63.9089 91.7123 63.6016 91.7123 63.3047ZM91.9857 59.8594L92.0013 61.0234H90.6498C90.3008 61.0234 89.9935 61.0573 89.7279 61.125C89.4623 61.1875 89.2409 61.2812 89.0638 61.4062C88.8867 61.5312 88.7539 61.6823 88.6654 61.8594C88.5768 62.0365 88.5326 62.237 88.5326 62.4609C88.5326 62.6849 88.5847 62.8906 88.6888 63.0781C88.793 63.2604 88.944 63.4036 89.142 63.5078C89.3451 63.612 89.5899 63.6641 89.8763 63.6641C90.2617 63.6641 90.5977 63.5859 90.8841 63.4297C91.1758 63.2682 91.405 63.0729 91.5716 62.8438C91.7383 62.6094 91.8268 62.388 91.8373 62.1797L92.4466 63.0156C92.3841 63.2292 92.2774 63.4583 92.1263 63.7031C91.9753 63.9479 91.7774 64.1823 91.5326 64.4062C91.293 64.625 91.0039 64.8047 90.6654 64.9453C90.3321 65.0859 89.9466 65.1562 89.5091 65.1562C88.9571 65.1562 88.4649 65.0469 88.0326 64.8281C87.6003 64.6042 87.2617 64.3047 87.017 63.9297C86.7722 63.5495 86.6498 63.1198 86.6498 62.6406C86.6498 62.1927 86.7331 61.7969 86.8998 61.4531C87.0716 61.1042 87.3216 60.8125 87.6498 60.5781C87.9831 60.3438 88.3893 60.1667 88.8685 60.0469C89.3477 59.9219 89.8946 59.8594 90.5091 59.8594H91.9857ZM97.4388 58.3516V65H95.556V56.5469H97.3295L97.4388 58.3516ZM97.1029 60.4609L96.4935 60.4531C96.4987 59.8542 96.5821 59.3047 96.7435 58.8047C96.9102 58.3047 97.1393 57.875 97.431 57.5156C97.7279 57.1562 98.0821 56.8802 98.4935 56.6875C98.905 56.4896 99.3633 56.3906 99.8685 56.3906C100.275 56.3906 100.642 56.4479 100.97 56.5625C101.303 56.6719 101.587 56.8516 101.822 57.1016C102.061 57.3516 102.244 57.6771 102.369 58.0781C102.494 58.474 102.556 58.9609 102.556 59.5391V65H100.665V59.5312C100.665 59.125 100.605 58.8047 100.486 58.5703C100.371 58.3307 100.202 58.1615 99.9779 58.0625C99.7591 57.9583 99.4857 57.9062 99.1576 57.9062C98.8347 57.9062 98.5456 57.974 98.2904 58.1094C98.0352 58.2448 97.819 58.4297 97.642 58.6641C97.4701 58.8984 97.3373 59.1693 97.2435 59.4766C97.1498 59.7839 97.1029 60.112 97.1029 60.4609ZM109.634 63.25V53H111.525V65H109.814L109.634 63.25ZM104.134 60.8672V60.7031C104.134 60.0625 104.21 59.4792 104.361 58.9531C104.512 58.4219 104.73 57.9661 105.017 57.5859C105.303 57.2005 105.652 56.9062 106.064 56.7031C106.475 56.4948 106.939 56.3906 107.454 56.3906C107.965 56.3906 108.413 56.4896 108.798 56.6875C109.184 56.8854 109.512 57.1693 109.783 57.5391C110.053 57.9036 110.27 58.3411 110.431 58.8516C110.592 59.3568 110.707 59.9193 110.775 60.5391V61.0625C110.707 61.6667 110.592 62.2188 110.431 62.7188C110.27 63.2188 110.053 63.651 109.783 64.0156C109.512 64.3802 109.181 64.6615 108.79 64.8594C108.405 65.0573 107.954 65.1562 107.439 65.1562C106.928 65.1562 106.467 65.0495 106.056 64.8359C105.65 64.6224 105.303 64.3229 105.017 63.9375C104.73 63.5521 104.512 63.099 104.361 62.5781C104.21 62.0521 104.134 61.4818 104.134 60.8672ZM106.017 60.7031V60.8672C106.017 61.2526 106.051 61.612 106.119 61.9453C106.191 62.2786 106.303 62.5729 106.454 62.8281C106.605 63.0781 106.801 63.276 107.04 63.4219C107.285 63.5625 107.577 63.6328 107.915 63.6328C108.342 63.6328 108.694 63.5391 108.97 63.3516C109.246 63.1641 109.462 62.9115 109.619 62.5938C109.78 62.2708 109.889 61.9115 109.947 61.5156V60.1016C109.915 59.7943 109.85 59.5078 109.751 59.2422C109.658 58.9766 109.53 58.7448 109.369 58.5469C109.207 58.3438 109.007 58.1875 108.767 58.0781C108.533 57.9635 108.254 57.9062 107.931 57.9062C107.587 57.9062 107.296 57.9792 107.056 58.125C106.816 58.2708 106.619 58.4714 106.462 58.7266C106.311 58.9818 106.199 59.2786 106.126 59.6172C106.053 59.9557 106.017 60.3177 106.017 60.7031ZM40.3138 84.7578H37.3529V83.2031H40.3138C40.8295 83.2031 41.2461 83.1198 41.5638 82.9531C41.8815 82.7865 42.1133 82.5573 42.2591 82.2656C42.4102 81.9688 42.4857 81.6302 42.4857 81.25C42.4857 80.8906 42.4102 80.5547 42.2591 80.2422C42.1133 79.9245 41.8815 79.6693 41.5638 79.4766C41.2461 79.2839 40.8295 79.1875 40.3138 79.1875H37.9545V89H35.9935V77.625H40.3138C41.194 77.625 41.9414 77.7812 42.556 78.0938C43.1758 78.401 43.6472 78.8281 43.9701 79.375C44.293 79.9167 44.4545 80.5365 44.4545 81.2344C44.4545 81.9688 44.293 82.599 43.9701 83.125C43.6472 83.651 43.1758 84.0547 42.556 84.3359C41.9414 84.6172 41.194 84.7578 40.3138 84.7578ZM50.6966 87.3047V83.2734C50.6966 82.9714 50.642 82.7109 50.5326 82.4922C50.4232 82.2734 50.2565 82.1042 50.0326 81.9844C49.8138 81.8646 49.5378 81.8047 49.2045 81.8047C48.8972 81.8047 48.6315 81.8568 48.4076 81.9609C48.1836 82.0651 48.0091 82.2057 47.8841 82.3828C47.7591 82.5599 47.6966 82.7604 47.6966 82.9844H45.8216C45.8216 82.651 45.9024 82.3281 46.0638 82.0156C46.2253 81.7031 46.4597 81.4245 46.767 81.1797C47.0742 80.9349 47.4414 80.7422 47.8685 80.6016C48.2956 80.4609 48.7748 80.3906 49.306 80.3906C49.9414 80.3906 50.5039 80.4974 50.9935 80.7109C51.4883 80.9245 51.8763 81.2474 52.1576 81.6797C52.444 82.1068 52.5873 82.6432 52.5873 83.2891V87.0469C52.5873 87.4323 52.6133 87.7786 52.6654 88.0859C52.7227 88.388 52.8034 88.651 52.9076 88.875V89H50.9779C50.8893 88.7969 50.819 88.5391 50.767 88.2266C50.7201 87.9089 50.6966 87.6016 50.6966 87.3047ZM50.9701 83.8594L50.9857 85.0234H49.6341C49.2852 85.0234 48.9779 85.0573 48.7123 85.125C48.4466 85.1875 48.2253 85.2812 48.0482 85.4062C47.8711 85.5312 47.7383 85.6823 47.6498 85.8594C47.5612 86.0365 47.517 86.237 47.517 86.4609C47.517 86.6849 47.569 86.8906 47.6732 87.0781C47.7774 87.2604 47.9284 87.4036 48.1263 87.5078C48.3295 87.612 48.5742 87.6641 48.8607 87.6641C49.2461 87.6641 49.5821 87.5859 49.8685 87.4297C50.1602 87.2682 50.3893 87.0729 50.556 86.8438C50.7227 86.6094 50.8112 86.388 50.8216 86.1797L51.431 87.0156C51.3685 87.2292 51.2617 87.4583 51.1107 87.7031C50.9597 87.9479 50.7617 88.1823 50.517 88.4062C50.2774 88.625 49.9883 88.8047 49.6498 88.9453C49.3164 89.0859 48.931 89.1562 48.4935 89.1562C47.9414 89.1562 47.4492 89.0469 47.017 88.8281C46.5847 88.6042 46.2461 88.3047 46.0013 87.9297C45.7565 87.5495 45.6341 87.1198 45.6341 86.6406C45.6341 86.1927 45.7175 85.7969 45.8841 85.4531C46.056 85.1042 46.306 84.8125 46.6341 84.5781C46.9675 84.3438 47.3737 84.1667 47.8529 84.0469C48.3321 83.9219 48.8789 83.8594 49.4935 83.8594H50.9701ZM59.2982 86.7109C59.2982 86.5234 59.2513 86.3542 59.1576 86.2031C59.0638 86.0469 58.8841 85.9062 58.6185 85.7812C58.3581 85.6562 57.9727 85.5417 57.4623 85.4375C57.0143 85.3385 56.6029 85.2214 56.2279 85.0859C55.8581 84.9453 55.5404 84.776 55.2748 84.5781C55.0091 84.3802 54.8034 84.1458 54.6576 83.875C54.5117 83.6042 54.4388 83.2917 54.4388 82.9375C54.4388 82.5938 54.5143 82.2682 54.6654 81.9609C54.8164 81.6536 55.0326 81.3828 55.3138 81.1484C55.5951 80.9141 55.9362 80.7292 56.3373 80.5938C56.7435 80.4583 57.1966 80.3906 57.6966 80.3906C58.405 80.3906 59.0117 80.5104 59.517 80.75C60.0274 80.9844 60.418 81.3047 60.6888 81.7109C60.9597 82.112 61.0951 82.5651 61.0951 83.0703H59.2123C59.2123 82.8464 59.155 82.638 59.0404 82.4453C58.931 82.2474 58.7643 82.0885 58.5404 81.9688C58.3164 81.8438 58.0352 81.7812 57.6966 81.7812C57.3737 81.7812 57.1055 81.8333 56.892 81.9375C56.6836 82.0365 56.5274 82.1667 56.4232 82.3281C56.3242 82.4896 56.2748 82.6667 56.2748 82.8594C56.2748 83 56.3008 83.1276 56.3529 83.2422C56.4102 83.3516 56.5039 83.4531 56.6341 83.5469C56.7643 83.6354 56.9414 83.7188 57.1654 83.7969C57.3946 83.875 57.681 83.9505 58.0248 84.0234C58.6706 84.1589 59.2253 84.3333 59.6888 84.5469C60.1576 84.7552 60.517 85.026 60.767 85.3594C61.017 85.6875 61.142 86.1042 61.142 86.6094C61.142 86.9844 61.0612 87.3281 60.8998 87.6406C60.7435 87.9479 60.5143 88.2161 60.2123 88.4453C59.9102 88.6693 59.5482 88.8438 59.1263 88.9688C58.7097 89.0938 58.2409 89.1562 57.7201 89.1562C56.9545 89.1562 56.306 89.0208 55.7748 88.75C55.2435 88.474 54.8399 88.1224 54.5638 87.6953C54.293 87.263 54.1576 86.8151 54.1576 86.3516H55.9779C55.9987 86.7005 56.0951 86.9792 56.267 87.1875C56.444 87.3906 56.6628 87.5391 56.9232 87.6328C57.1888 87.7214 57.4623 87.7656 57.7435 87.7656C58.0821 87.7656 58.3659 87.7214 58.5951 87.6328C58.8242 87.5391 58.9987 87.4141 59.1185 87.2578C59.2383 87.0964 59.2982 86.9141 59.2982 86.7109ZM67.5326 86.7109C67.5326 86.5234 67.4857 86.3542 67.392 86.2031C67.2982 86.0469 67.1185 85.9062 66.8529 85.7812C66.5925 85.6562 66.2071 85.5417 65.6966 85.4375C65.2487 85.3385 64.8373 85.2214 64.4623 85.0859C64.0925 84.9453 63.7748 84.776 63.5091 84.5781C63.2435 84.3802 63.0378 84.1458 62.892 83.875C62.7461 83.6042 62.6732 83.2917 62.6732 82.9375C62.6732 82.5938 62.7487 82.2682 62.8998 81.9609C63.0508 81.6536 63.267 81.3828 63.5482 81.1484C63.8295 80.9141 64.1706 80.7292 64.5716 80.5938C64.9779 80.4583 65.431 80.3906 65.931 80.3906C66.6393 80.3906 67.2461 80.5104 67.7513 80.75C68.2617 80.9844 68.6524 81.3047 68.9232 81.7109C69.194 82.112 69.3295 82.5651 69.3295 83.0703H67.4466C67.4466 82.8464 67.3893 82.638 67.2748 82.4453C67.1654 82.2474 66.9987 82.0885 66.7748 81.9688C66.5508 81.8438 66.2696 81.7812 65.931 81.7812C65.6081 81.7812 65.3399 81.8333 65.1263 81.9375C64.918 82.0365 64.7617 82.1667 64.6576 82.3281C64.5586 82.4896 64.5091 82.6667 64.5091 82.8594C64.5091 83 64.5352 83.1276 64.5873 83.2422C64.6446 83.3516 64.7383 83.4531 64.8685 83.5469C64.9987 83.6354 65.1758 83.7188 65.3998 83.7969C65.6289 83.875 65.9154 83.9505 66.2591 84.0234C66.905 84.1589 67.4597 84.3333 67.9232 84.5469C68.392 84.7552 68.7513 85.026 69.0013 85.3594C69.2513 85.6875 69.3763 86.1042 69.3763 86.6094C69.3763 86.9844 69.2956 87.3281 69.1341 87.6406C68.9779 87.9479 68.7487 88.2161 68.4466 88.4453C68.1446 88.6693 67.7826 88.8438 67.3607 88.9688C66.944 89.0938 66.4753 89.1562 65.9545 89.1562C65.1888 89.1562 64.5404 89.0208 64.0091 88.75C63.4779 88.474 63.0742 88.1224 62.7982 87.6953C62.5274 87.263 62.392 86.8151 62.392 86.3516H64.2123C64.2331 86.7005 64.3295 86.9792 64.5013 87.1875C64.6784 87.3906 64.8972 87.5391 65.1576 87.6328C65.4232 87.7214 65.6966 87.7656 65.9779 87.7656C66.3164 87.7656 66.6003 87.7214 66.8295 87.6328C67.0586 87.5391 67.2331 87.4141 67.3529 87.2578C67.4727 87.0964 67.5326 86.9141 67.5326 86.7109ZM73.0404 80.5469V89H71.1498V80.5469H73.0404ZM71.0248 78.3281C71.0248 78.0417 71.1185 77.8047 71.306 77.6172C71.4987 77.4245 71.7643 77.3281 72.1029 77.3281C72.4362 77.3281 72.6992 77.4245 72.892 77.6172C73.0847 77.8047 73.181 78.0417 73.181 78.3281C73.181 78.6094 73.0847 78.8438 72.892 79.0312C72.6992 79.2188 72.4362 79.3125 72.1029 79.3125C71.7643 79.3125 71.4987 79.2188 71.306 79.0312C71.1185 78.8438 71.0248 78.6094 71.0248 78.3281ZM74.7435 84.8672V84.6875C74.7435 84.0781 74.8321 83.513 75.0091 82.9922C75.1862 82.4661 75.4414 82.0104 75.7748 81.625C76.1133 81.2344 76.5248 80.9323 77.0091 80.7188C77.4987 80.5 78.0508 80.3906 78.6654 80.3906C79.2852 80.3906 79.8373 80.5 80.3216 80.7188C80.8112 80.9323 81.2253 81.2344 81.5638 81.625C81.9024 82.0104 82.1602 82.4661 82.3373 82.9922C82.5143 83.513 82.6029 84.0781 82.6029 84.6875V84.8672C82.6029 85.4766 82.5143 86.0417 82.3373 86.5625C82.1602 87.0833 81.9024 87.5391 81.5638 87.9297C81.2253 88.3151 80.8138 88.6172 80.3295 88.8359C79.8451 89.0495 79.2956 89.1562 78.681 89.1562C78.0612 89.1562 77.5065 89.0495 77.017 88.8359C76.5326 88.6172 76.1211 88.3151 75.7826 87.9297C75.444 87.5391 75.1862 87.0833 75.0091 86.5625C74.8321 86.0417 74.7435 85.4766 74.7435 84.8672ZM76.6263 84.6875V84.8672C76.6263 85.2474 76.6654 85.6068 76.7435 85.9453C76.8216 86.2839 76.944 86.5807 77.1107 86.8359C77.2774 87.0911 77.4909 87.2917 77.7513 87.4375C78.0117 87.5833 78.3216 87.6562 78.681 87.6562C79.03 87.6562 79.3321 87.5833 79.5873 87.4375C79.8477 87.2917 80.0612 87.0911 80.2279 86.8359C80.3946 86.5807 80.517 86.2839 80.5951 85.9453C80.6784 85.6068 80.7201 85.2474 80.7201 84.8672V84.6875C80.7201 84.3125 80.6784 83.9583 80.5951 83.625C80.517 83.2865 80.392 82.987 80.2201 82.7266C80.0534 82.4661 79.8399 82.263 79.5795 82.1172C79.3242 81.9661 79.0196 81.8906 78.6654 81.8906C78.3112 81.8906 78.0039 81.9661 77.7435 82.1172C77.4883 82.263 77.2774 82.4661 77.1107 82.7266C76.944 82.987 76.8216 83.2865 76.7435 83.625C76.6654 83.9583 76.6263 84.3125 76.6263 84.6875ZM86.0482 82.3516V89H84.1654V80.5469H85.9388L86.0482 82.3516ZM85.7123 84.4609L85.1029 84.4531C85.1081 83.8542 85.1914 83.3047 85.3529 82.8047C85.5196 82.3047 85.7487 81.875 86.0404 81.5156C86.3373 81.1562 86.6914 80.8802 87.1029 80.6875C87.5143 80.4896 87.9727 80.3906 88.4779 80.3906C88.8841 80.3906 89.2513 80.4479 89.5795 80.5625C89.9128 80.6719 90.1966 80.8516 90.431 81.1016C90.6706 81.3516 90.8529 81.6771 90.9779 82.0781C91.1029 82.474 91.1654 82.9609 91.1654 83.5391V89H89.2748V83.5312C89.2748 83.125 89.2149 82.8047 89.0951 82.5703C88.9805 82.3307 88.8112 82.1615 88.5873 82.0625C88.3685 81.9583 88.0951 81.9062 87.767 81.9062C87.444 81.9062 87.155 81.974 86.8998 82.1094C86.6446 82.2448 86.4284 82.4297 86.2513 82.6641C86.0795 82.8984 85.9466 83.1693 85.8529 83.4766C85.7591 83.7839 85.7123 84.112 85.7123 84.4609ZM97.8295 86.7109C97.8295 86.5234 97.7826 86.3542 97.6888 86.2031C97.5951 86.0469 97.4154 85.9062 97.1498 85.7812C96.8893 85.6562 96.5039 85.5417 95.9935 85.4375C95.5456 85.3385 95.1341 85.2214 94.7591 85.0859C94.3893 84.9453 94.0716 84.776 93.806 84.5781C93.5404 84.3802 93.3347 84.1458 93.1888 83.875C93.043 83.6042 92.9701 83.2917 92.9701 82.9375C92.9701 82.5938 93.0456 82.2682 93.1966 81.9609C93.3477 81.6536 93.5638 81.3828 93.8451 81.1484C94.1263 80.9141 94.4675 80.7292 94.8685 80.5938C95.2748 80.4583 95.7279 80.3906 96.2279 80.3906C96.9362 80.3906 97.543 80.5104 98.0482 80.75C98.5586 80.9844 98.9492 81.3047 99.2201 81.7109C99.4909 82.112 99.6263 82.5651 99.6263 83.0703H97.7435C97.7435 82.8464 97.6862 82.638 97.5716 82.4453C97.4623 82.2474 97.2956 82.0885 97.0716 81.9688C96.8477 81.8438 96.5664 81.7812 96.2279 81.7812C95.905 81.7812 95.6367 81.8333 95.4232 81.9375C95.2149 82.0365 95.0586 82.1667 94.9545 82.3281C94.8555 82.4896 94.806 82.6667 94.806 82.8594C94.806 83 94.8321 83.1276 94.8841 83.2422C94.9414 83.3516 95.0352 83.4531 95.1654 83.5469C95.2956 83.6354 95.4727 83.7188 95.6966 83.7969C95.9258 83.875 96.2123 83.9505 96.556 84.0234C97.2018 84.1589 97.7565 84.3333 98.2201 84.5469C98.6888 84.7552 99.0482 85.026 99.2982 85.3594C99.5482 85.6875 99.6732 86.1042 99.6732 86.6094C99.6732 86.9844 99.5925 87.3281 99.431 87.6406C99.2748 87.9479 99.0456 88.2161 98.7435 88.4453C98.4414 88.6693 98.0795 88.8438 97.6576 88.9688C97.2409 89.0938 96.7722 89.1562 96.2513 89.1562C95.4857 89.1562 94.8373 89.0208 94.306 88.75C93.7748 88.474 93.3711 88.1224 93.0951 87.6953C92.8242 87.263 92.6888 86.8151 92.6888 86.3516H94.5091C94.53 86.7005 94.6263 86.9792 94.7982 87.1875C94.9753 87.3906 95.194 87.5391 95.4545 87.6328C95.7201 87.7214 95.9935 87.7656 96.2748 87.7656C96.6133 87.7656 96.8972 87.7214 97.1263 87.6328C97.3555 87.5391 97.53 87.4141 97.6498 87.2578C97.7696 87.0964 97.8295 86.9141 97.8295 86.7109Z" fill="#212121"/>
<defs>
<clipPath id="clip0_2_2354">
<rect width="20" height="20" fill="white" transform="translate(57.5 22)"/>
</clipPath>
<clipPath id="clip1_2_2354">
<rect width="18.1818" height="20" fill="white" transform="translate(58.4092 22)"/>
</clipPath>
</defs>
</svg>
