<svg width="135" height="112" viewBox="0 0 135 112" fill="none" xmlns="http://www.w3.org/2000/svg">
<rect width="135" height="112" rx="8" fill="#97CAD1" fill-opacity="0.08"/>
<g clip-path="url(#clip0_2_2366)">
<g clip-path="url(#clip1_2_2366)">
<path fill-rule="evenodd" clip-rule="evenodd" d="M69.4851 37.6191C70.2281 36.133 70.729 33.9799 70.729 31.5237C70.729 28.5038 68.8472 25.7395 67.489 24.164C67.4633 24.1341 67.4423 24.1218 67.4303 24.1163C67.4173 24.1103 67.4058 24.1083 67.3956 24.1083C67.3855 24.1083 67.3739 24.1103 67.3609 24.1163C67.349 24.1218 67.328 24.1341 67.3022 24.164C65.944 25.7395 64.0623 28.5038 64.0623 31.5237C64.0623 33.9799 64.5631 36.133 65.3062 37.6191C66.092 39.1908 66.9133 39.619 67.3956 39.619C67.8779 39.619 68.6993 39.1908 69.4851 37.6191ZM72.15 31.1615C72.7191 31.0323 73.2808 30.9548 73.8096 30.9121C74.1918 29.5028 74.1335 27.9876 73.9683 26.8278C73.9636 26.7954 73.955 26.7802 73.9516 26.775C73.9476 26.7688 73.944 26.7658 73.9413 26.7641C73.9385 26.7623 73.9342 26.7603 73.927 26.7594C73.9208 26.7586 73.9033 26.7572 73.872 26.767C73.1223 27.0005 72.2489 27.346 71.4205 27.8345C71.2432 27.3798 71.042 26.943 70.8266 26.5275C71.7544 25.9974 72.6918 25.6383 73.4472 25.4031C74.3534 25.1208 75.2488 25.6868 75.3826 26.6264C75.542 27.7459 75.6329 29.31 75.2897 30.8724C75.3307 30.8734 75.3711 30.8746 75.411 30.8759C76.3596 30.9074 77.019 31.7365 76.8363 32.6678C76.503 34.3665 75.6751 36.9963 73.6417 38.6135C71.5237 40.2982 69.2049 41.1849 67.5008 41.1115C65.7966 41.1849 63.4778 40.2982 61.3598 38.6135C59.3265 36.9963 58.4985 34.3665 58.1652 32.6678C57.9825 31.7365 58.6419 30.9074 59.5905 30.8759C59.6304 30.8746 59.6709 30.8734 59.7118 30.8724C59.3687 29.31 59.4595 27.7459 59.6189 26.6264C59.7528 25.6868 60.6482 25.1208 61.5544 25.4031C62.2656 25.6246 63.1383 25.9558 64.0124 26.4363C63.7947 26.8491 63.5906 27.2833 63.4097 27.7358C62.6332 27.299 61.8277 26.9845 61.1295 26.767C61.0983 26.7572 61.0808 26.7586 61.0746 26.7594C61.0673 26.7603 61.0631 26.7623 61.0603 26.7641C61.0576 26.7658 61.0539 26.7688 61.0499 26.775C61.0466 26.7802 61.0379 26.7954 61.0332 26.8278C60.8681 27.9876 60.8097 29.5028 61.192 30.9121C61.6561 30.9496 62.1456 31.0139 62.6432 31.1164C62.7996 27.732 64.8642 24.8043 66.2202 23.2312C66.8541 22.4958 67.9372 22.4958 68.5711 23.2312C69.9331 24.8112 72.0099 27.758 72.15 31.1615ZM70.3485 38.9958C71.3132 37.4688 71.9753 35.2103 72.1252 32.6391C73.254 32.3349 74.4198 32.2723 75.3636 32.3037C75.3963 32.3048 75.4123 32.3117 75.4179 32.3146C75.4245 32.3178 75.4278 32.3211 75.4298 32.3237C75.4318 32.3262 75.4343 32.3303 75.436 32.3374C75.4376 32.3434 75.4408 32.3607 75.4344 32.3928C75.1183 34.004 74.3745 36.2053 72.7525 37.4955C71.9371 38.1441 71.1172 38.6407 70.3485 38.9958ZM64.3539 38.8517C63.6735 38.5104 62.9596 38.0607 62.249 37.4955C60.627 36.2053 59.8832 34.004 59.5671 32.3928C59.5608 32.3607 59.564 32.3434 59.5655 32.3374C59.5672 32.3303 59.5697 32.3262 59.5717 32.3237C59.5737 32.3211 59.5771 32.3178 59.5836 32.3146C59.5892 32.3117 59.6053 32.3048 59.638 32.3037C60.5224 32.2743 61.6017 32.3273 62.6629 32.5845C62.8022 35.0985 63.4308 37.3173 64.3539 38.8517Z" fill="#31775A"/>
</g>
</g>
<path d="M37.5766 58.375V59.9297H31.5376V58.375H37.5766ZM32.022 53.625V65H30.061V53.625H32.022ZM39.0845 53.625V65H37.1313V53.625H39.0845ZM44.9595 65.1562C44.3345 65.1562 43.7693 65.0547 43.2641 64.8516C42.7641 64.6432 42.3371 64.3542 41.9829 63.9844C41.6339 63.6146 41.3657 63.1797 41.1782 62.6797C40.9907 62.1797 40.897 61.6406 40.897 61.0625V60.75C40.897 60.0885 40.9933 59.4896 41.186 58.9531C41.3787 58.4167 41.647 57.9583 41.9907 57.5781C42.3345 57.1927 42.7407 56.8984 43.2095 56.6953C43.6782 56.4922 44.186 56.3906 44.7329 56.3906C45.3371 56.3906 45.8657 56.4922 46.3188 56.6953C46.772 56.8984 47.147 57.1849 47.4438 57.5547C47.7459 57.9193 47.9699 58.3542 48.1157 58.8594C48.2667 59.3646 48.3423 59.9219 48.3423 60.5312V61.3359H41.811V59.9844H46.4829V59.8359C46.4725 59.4974 46.4048 59.1797 46.2798 58.8828C46.16 58.5859 45.9751 58.3464 45.7251 58.1641C45.4751 57.9818 45.1417 57.8906 44.7251 57.8906C44.4126 57.8906 44.1339 57.9583 43.8891 58.0938C43.6496 58.224 43.449 58.4141 43.2876 58.6641C43.1261 58.9141 43.0011 59.2161 42.9126 59.5703C42.8292 59.9193 42.7876 60.3125 42.7876 60.75V61.0625C42.7876 61.4323 42.8371 61.776 42.936 62.0938C43.0402 62.4062 43.1912 62.6797 43.3891 62.9141C43.5871 63.1484 43.8266 63.3333 44.1079 63.4688C44.3891 63.599 44.7095 63.6641 45.0688 63.6641C45.522 63.6641 45.9256 63.5729 46.2798 63.3906C46.6339 63.2083 46.9412 62.9505 47.2016 62.6172L48.1938 63.5781C48.0115 63.8438 47.7746 64.099 47.4829 64.3438C47.1912 64.5833 46.8345 64.7786 46.4126 64.9297C45.9959 65.0807 45.5115 65.1562 44.9595 65.1562ZM54.5766 63.3047V59.2734C54.5766 58.9714 54.522 58.7109 54.4126 58.4922C54.3032 58.2734 54.1365 58.1042 53.9126 57.9844C53.6938 57.8646 53.4178 57.8047 53.0845 57.8047C52.7772 57.8047 52.5115 57.8568 52.2876 57.9609C52.0636 58.0651 51.8891 58.2057 51.7641 58.3828C51.6391 58.5599 51.5766 58.7604 51.5766 58.9844H49.7016C49.7016 58.651 49.7824 58.3281 49.9438 58.0156C50.1053 57.7031 50.3397 57.4245 50.647 57.1797C50.9542 56.9349 51.3214 56.7422 51.7485 56.6016C52.1756 56.4609 52.6548 56.3906 53.186 56.3906C53.8214 56.3906 54.3839 56.4974 54.8735 56.7109C55.3683 56.9245 55.7563 57.2474 56.0376 57.6797C56.324 58.1068 56.4673 58.6432 56.4673 59.2891V63.0469C56.4673 63.4323 56.4933 63.7786 56.5454 64.0859C56.6027 64.388 56.6834 64.651 56.7876 64.875V65H54.8579C54.7693 64.7969 54.699 64.5391 54.647 64.2266C54.6001 63.9089 54.5766 63.6016 54.5766 63.3047ZM54.8501 59.8594L54.8657 61.0234H53.5141C53.1652 61.0234 52.8579 61.0573 52.5923 61.125C52.3266 61.1875 52.1053 61.2812 51.9282 61.4062C51.7511 61.5312 51.6183 61.6823 51.5298 61.8594C51.4412 62.0365 51.397 62.237 51.397 62.4609C51.397 62.6849 51.449 62.8906 51.5532 63.0781C51.6574 63.2604 51.8084 63.4036 52.0063 63.5078C52.2095 63.612 52.4542 63.6641 52.7407 63.6641C53.1261 63.6641 53.4621 63.5859 53.7485 63.4297C54.0402 63.2682 54.2693 63.0729 54.436 62.8438C54.6027 62.6094 54.6912 62.388 54.7016 62.1797L55.311 63.0156C55.2485 63.2292 55.1417 63.4583 54.9907 63.7031C54.8397 63.9479 54.6417 64.1823 54.397 64.4062C54.1574 64.625 53.8683 64.8047 53.5298 64.9453C53.1964 65.0859 52.811 65.1562 52.3735 65.1562C51.8214 65.1562 51.3292 65.0469 50.897 64.8281C50.4647 64.6042 50.1261 64.3047 49.8813 63.9297C49.6365 63.5495 49.5141 63.1198 49.5141 62.6406C49.5141 62.1927 49.5975 61.7969 49.7641 61.4531C49.936 61.1042 50.186 60.8125 50.5141 60.5781C50.8475 60.3438 51.2537 60.1667 51.7329 60.0469C52.2121 59.9219 52.7589 59.8594 53.3735 59.8594H54.8501ZM60.4516 53V65H58.561V53H60.4516ZM66.3891 56.5469V57.9219H61.6235V56.5469H66.3891ZM62.9985 54.4766H64.8813V62.6641C64.8813 62.9245 64.9178 63.125 64.9907 63.2656C65.0688 63.401 65.1756 63.4922 65.311 63.5391C65.4464 63.5859 65.6053 63.6094 65.7876 63.6094C65.9178 63.6094 66.0428 63.6016 66.1626 63.5859C66.2824 63.5703 66.3787 63.5547 66.4516 63.5391L66.4595 64.9766C66.3032 65.0234 66.1209 65.0651 65.9126 65.1016C65.7095 65.138 65.4751 65.1562 65.2095 65.1562C64.7772 65.1562 64.3943 65.0807 64.061 64.9297C63.7277 64.7734 63.4673 64.5208 63.2798 64.1719C63.0923 63.8229 62.9985 63.3594 62.9985 62.7812V54.4766ZM69.7016 53V65H67.8266V53H69.7016ZM69.3735 60.4609L68.7641 60.4531C68.7693 59.8698 68.8501 59.3307 69.0063 58.8359C69.1678 58.3411 69.3917 57.9115 69.6782 57.5469C69.9699 57.1771 70.3188 56.8932 70.7251 56.6953C71.1313 56.4922 71.5818 56.3906 72.0766 56.3906C72.4933 56.3906 72.8683 56.4479 73.2016 56.5625C73.5402 56.6771 73.8318 56.862 74.0766 57.1172C74.3214 57.3672 74.5063 57.6953 74.6313 58.1016C74.7615 58.5026 74.8266 58.9922 74.8266 59.5703V65H72.936V59.5547C72.936 59.1484 72.8761 58.8255 72.7563 58.5859C72.6417 58.3464 72.4725 58.1745 72.2485 58.0703C72.0246 57.9609 71.7511 57.9062 71.4282 57.9062C71.0897 57.9062 70.7902 57.974 70.5298 58.1094C70.2746 58.2448 70.061 58.4297 69.8891 58.6641C69.7173 58.8984 69.5871 59.1693 69.4985 59.4766C69.4152 59.7839 69.3735 60.112 69.3735 60.4609ZM85.4829 63.3047V59.2734C85.4829 58.9714 85.4282 58.7109 85.3188 58.4922C85.2095 58.2734 85.0428 58.1042 84.8188 57.9844C84.6001 57.8646 84.324 57.8047 83.9907 57.8047C83.6834 57.8047 83.4178 57.8568 83.1938 57.9609C82.9699 58.0651 82.7954 58.2057 82.6704 58.3828C82.5454 58.5599 82.4829 58.7604 82.4829 58.9844H80.6079C80.6079 58.651 80.6886 58.3281 80.8501 58.0156C81.0115 57.7031 81.2459 57.4245 81.5532 57.1797C81.8605 56.9349 82.2277 56.7422 82.6548 56.6016C83.0818 56.4609 83.561 56.3906 84.0923 56.3906C84.7277 56.3906 85.2902 56.4974 85.7798 56.7109C86.2746 56.9245 86.6626 57.2474 86.9438 57.6797C87.2303 58.1068 87.3735 58.6432 87.3735 59.2891V63.0469C87.3735 63.4323 87.3996 63.7786 87.4516 64.0859C87.5089 64.388 87.5897 64.651 87.6938 64.875V65H85.7641C85.6756 64.7969 85.6053 64.5391 85.5532 64.2266C85.5063 63.9089 85.4829 63.6016 85.4829 63.3047ZM85.7563 59.8594L85.772 61.0234H84.4204C84.0714 61.0234 83.7641 61.0573 83.4985 61.125C83.2329 61.1875 83.0115 61.2812 82.8345 61.4062C82.6574 61.5312 82.5246 61.6823 82.436 61.8594C82.3475 62.0365 82.3032 62.237 82.3032 62.4609C82.3032 62.6849 82.3553 62.8906 82.4595 63.0781C82.5636 63.2604 82.7147 63.4036 82.9126 63.5078C83.1157 63.612 83.3605 63.6641 83.647 63.6641C84.0324 63.6641 84.3683 63.5859 84.6548 63.4297C84.9464 63.2682 85.1756 63.0729 85.3423 62.8438C85.5089 62.6094 85.5975 62.388 85.6079 62.1797L86.2173 63.0156C86.1548 63.2292 86.048 63.4583 85.897 63.7031C85.7459 63.9479 85.548 64.1823 85.3032 64.4062C85.0636 64.625 84.7746 64.8047 84.436 64.9453C84.1027 65.0859 83.7173 65.1562 83.2798 65.1562C82.7277 65.1562 82.2355 65.0469 81.8032 64.8281C81.3709 64.6042 81.0324 64.3047 80.7876 63.9297C80.5428 63.5495 80.4204 63.1198 80.4204 62.6406C80.4204 62.1927 80.5037 61.7969 80.6704 61.4531C80.8423 61.1042 81.0923 60.8125 81.4204 60.5781C81.7537 60.3438 82.16 60.1667 82.6391 60.0469C83.1183 59.9219 83.6652 59.8594 84.2798 59.8594H85.7563ZM91.2095 58.3516V65H89.3266V56.5469H91.1001L91.2095 58.3516ZM90.8735 60.4609L90.2641 60.4531C90.2693 59.8542 90.3527 59.3047 90.5141 58.8047C90.6808 58.3047 90.91 57.875 91.2016 57.5156C91.4985 57.1562 91.8527 56.8802 92.2641 56.6875C92.6756 56.4896 93.1339 56.3906 93.6391 56.3906C94.0454 56.3906 94.4126 56.4479 94.7407 56.5625C95.074 56.6719 95.3579 56.8516 95.5923 57.1016C95.8318 57.3516 96.0141 57.6771 96.1391 58.0781C96.2641 58.474 96.3266 58.9609 96.3266 59.5391V65H94.436V59.5312C94.436 59.125 94.3761 58.8047 94.2563 58.5703C94.1417 58.3307 93.9725 58.1615 93.7485 58.0625C93.5298 57.9583 93.2563 57.9062 92.9282 57.9062C92.6053 57.9062 92.3162 57.974 92.061 58.1094C91.8058 58.2448 91.5897 58.4297 91.4126 58.6641C91.2407 58.8984 91.1079 59.1693 91.0141 59.4766C90.9204 59.7839 90.8735 60.112 90.8735 60.4609ZM103.405 63.25V53H105.295V65H103.584L103.405 63.25ZM97.9048 60.8672V60.7031C97.9048 60.0625 97.9803 59.4792 98.1313 58.9531C98.2824 58.4219 98.5011 57.9661 98.7876 57.5859C99.074 57.2005 99.423 56.9062 99.8345 56.7031C100.246 56.4948 100.709 56.3906 101.225 56.3906C101.735 56.3906 102.183 56.4896 102.569 56.6875C102.954 56.8854 103.282 57.1693 103.553 57.5391C103.824 57.9036 104.04 58.3411 104.202 58.8516C104.363 59.3568 104.478 59.9193 104.545 60.5391V61.0625C104.478 61.6667 104.363 62.2188 104.202 62.7188C104.04 63.2188 103.824 63.651 103.553 64.0156C103.282 64.3802 102.952 64.6615 102.561 64.8594C102.176 65.0573 101.725 65.1562 101.209 65.1562C100.699 65.1562 100.238 65.0495 99.8266 64.8359C99.4204 64.6224 99.074 64.3229 98.7876 63.9375C98.5011 63.5521 98.2824 63.099 98.1313 62.5781C97.9803 62.0521 97.9048 61.4818 97.9048 60.8672ZM99.7876 60.7031V60.8672C99.7876 61.2526 99.8214 61.612 99.8891 61.9453C99.9621 62.2786 100.074 62.5729 100.225 62.8281C100.376 63.0781 100.571 63.276 100.811 63.4219C101.056 63.5625 101.347 63.6328 101.686 63.6328C102.113 63.6328 102.465 63.5391 102.741 63.3516C103.017 63.1641 103.233 62.9115 103.389 62.5938C103.551 62.2708 103.66 61.9115 103.717 61.5156V60.1016C103.686 59.7943 103.621 59.5078 103.522 59.2422C103.428 58.9766 103.301 58.7448 103.139 58.5469C102.978 58.3438 102.777 58.1875 102.538 58.0781C102.303 57.9635 102.025 57.9062 101.702 57.9062C101.358 57.9062 101.066 57.9792 100.827 58.125C100.587 58.2708 100.389 58.4714 100.233 58.7266C100.082 58.9818 99.9699 59.2786 99.897 59.6172C99.824 59.9557 99.7876 60.3177 99.7876 60.7031ZM36.4985 86.4453L38.7641 77.625H39.9516L39.8188 79.8984L37.397 89H36.1626L36.4985 86.4453ZM34.8032 77.625L36.6391 86.375L36.8032 89H35.4907L32.8579 77.625H34.8032ZM42.522 86.3516L44.3345 77.625H46.2876L43.6548 89H42.3423L42.522 86.3516ZM40.4126 77.625L42.6548 86.4688L42.9829 89H41.7485L39.3657 79.8984L39.2407 77.625H40.4126ZM51.0298 89.1562C50.4048 89.1562 49.8397 89.0547 49.3345 88.8516C48.8345 88.6432 48.4074 88.3542 48.0532 87.9844C47.7042 87.6146 47.436 87.1797 47.2485 86.6797C47.061 86.1797 46.9673 85.6406 46.9673 85.0625V84.75C46.9673 84.0885 47.0636 83.4896 47.2563 82.9531C47.449 82.4167 47.7173 81.9583 48.061 81.5781C48.4048 81.1927 48.811 80.8984 49.2798 80.6953C49.7485 80.4922 50.2563 80.3906 50.8032 80.3906C51.4074 80.3906 51.936 80.4922 52.3891 80.6953C52.8423 80.8984 53.2173 81.1849 53.5141 81.5547C53.8162 81.9193 54.0402 82.3542 54.186 82.8594C54.3371 83.3646 54.4126 83.9219 54.4126 84.5312V85.3359H47.8813V83.9844H52.5532V83.8359C52.5428 83.4974 52.4751 83.1797 52.3501 82.8828C52.2303 82.5859 52.0454 82.3464 51.7954 82.1641C51.5454 81.9818 51.2121 81.8906 50.7954 81.8906C50.4829 81.8906 50.2042 81.9583 49.9595 82.0938C49.7199 82.224 49.5193 82.4141 49.3579 82.6641C49.1964 82.9141 49.0714 83.2161 48.9829 83.5703C48.8996 83.9193 48.8579 84.3125 48.8579 84.75V85.0625C48.8579 85.4323 48.9074 85.776 49.0063 86.0938C49.1105 86.4062 49.2615 86.6797 49.4595 86.9141C49.6574 87.1484 49.897 87.3333 50.1782 87.4688C50.4595 87.599 50.7798 87.6641 51.1391 87.6641C51.5923 87.6641 51.9959 87.5729 52.3501 87.3906C52.7042 87.2083 53.0115 86.9505 53.272 86.6172L54.2641 87.5781C54.0818 87.8438 53.8449 88.099 53.5532 88.3438C53.2615 88.5833 52.9048 88.7786 52.4829 88.9297C52.0662 89.0807 51.5818 89.1562 51.0298 89.1562ZM57.897 77V89H56.0063V77H57.897ZM61.9751 77V89H60.0845V77H61.9751ZM64.0454 77H65.9282V87.1953L65.7485 89H64.0454V77ZM71.4438 84.6953V84.8594C71.4438 85.4844 71.3735 86.0599 71.2329 86.5859C71.0975 87.1068 70.8891 87.5599 70.6079 87.9453C70.3318 88.3307 69.9881 88.6302 69.5766 88.8438C69.1704 89.0521 68.699 89.1562 68.1626 89.1562C67.6365 89.1562 67.1782 89.0573 66.7876 88.8594C66.397 88.6615 66.0688 88.3802 65.8032 88.0156C65.5428 87.651 65.3318 87.2161 65.1704 86.7109C65.0089 86.2057 64.8943 85.6484 64.8266 85.0391V84.5156C64.8943 83.901 65.0089 83.3438 65.1704 82.8438C65.3318 82.3385 65.5428 81.9036 65.8032 81.5391C66.0688 81.1693 66.3943 80.8854 66.7798 80.6875C67.1704 80.4896 67.6261 80.3906 68.147 80.3906C68.6886 80.3906 69.1652 80.4948 69.5766 80.7031C69.9933 80.9115 70.3397 81.2083 70.6157 81.5938C70.8917 81.974 71.0975 82.4271 71.2329 82.9531C71.3735 83.4792 71.4438 84.0599 71.4438 84.6953ZM69.561 84.8594V84.6953C69.561 84.3151 69.5298 83.9583 69.4673 83.625C69.4048 83.2865 69.3006 82.9896 69.1548 82.7344C69.0141 82.4792 68.8214 82.2786 68.5766 82.1328C68.3371 81.9818 68.0376 81.9062 67.6782 81.9062C67.3449 81.9062 67.0584 81.9635 66.8188 82.0781C66.5792 82.1927 66.3787 82.349 66.2173 82.5469C66.0558 82.7448 65.9282 82.974 65.8345 83.2344C65.7459 83.4948 65.686 83.776 65.6548 84.0781V85.4922C65.7016 85.8828 65.8006 86.2422 65.9516 86.5703C66.1079 86.8932 66.3266 87.1536 66.6079 87.3516C66.8891 87.5443 67.2511 87.6406 67.6938 87.6406C68.0428 87.6406 68.3371 87.5703 68.5766 87.4297C68.8162 87.2891 69.0063 87.0938 69.147 86.8438C69.2928 86.5885 69.397 86.2917 69.4595 85.9531C69.5272 85.6146 69.561 85.25 69.561 84.8594ZM76.7641 89.1562C76.1391 89.1562 75.574 89.0547 75.0688 88.8516C74.5688 88.6432 74.1417 88.3542 73.7876 87.9844C73.4386 87.6146 73.1704 87.1797 72.9829 86.6797C72.7954 86.1797 72.7016 85.6406 72.7016 85.0625V84.75C72.7016 84.0885 72.798 83.4896 72.9907 82.9531C73.1834 82.4167 73.4516 81.9583 73.7954 81.5781C74.1391 81.1927 74.5454 80.8984 75.0141 80.6953C75.4829 80.4922 75.9907 80.3906 76.5376 80.3906C77.1417 80.3906 77.6704 80.4922 78.1235 80.6953C78.5766 80.8984 78.9516 81.1849 79.2485 81.5547C79.5506 81.9193 79.7746 82.3542 79.9204 82.8594C80.0714 83.3646 80.147 83.9219 80.147 84.5312V85.3359H73.6157V83.9844H78.2876V83.8359C78.2772 83.4974 78.2095 83.1797 78.0845 82.8828C77.9647 82.5859 77.7798 82.3464 77.5298 82.1641C77.2798 81.9818 76.9464 81.8906 76.5298 81.8906C76.2173 81.8906 75.9386 81.9583 75.6938 82.0938C75.4542 82.224 75.2537 82.4141 75.0923 82.6641C74.9308 82.9141 74.8058 83.2161 74.7173 83.5703C74.6339 83.9193 74.5923 84.3125 74.5923 84.75V85.0625C74.5923 85.4323 74.6417 85.776 74.7407 86.0938C74.8449 86.4062 74.9959 86.6797 75.1938 86.9141C75.3917 87.1484 75.6313 87.3333 75.9126 87.4688C76.1938 87.599 76.5141 87.6641 76.8735 87.6641C77.3266 87.6641 77.7303 87.5729 78.0845 87.3906C78.4386 87.2083 78.7459 86.9505 79.0063 86.6172L79.9985 87.5781C79.8162 87.8438 79.5792 88.099 79.2876 88.3438C78.9959 88.5833 78.6391 88.7786 78.2173 88.9297C77.8006 89.0807 77.3162 89.1562 76.7641 89.1562ZM83.6313 80.5469V89H81.7407V80.5469H83.6313ZM81.6157 78.3281C81.6157 78.0417 81.7095 77.8047 81.897 77.6172C82.0897 77.4245 82.3553 77.3281 82.6938 77.3281C83.0272 77.3281 83.2902 77.4245 83.4829 77.6172C83.6756 77.8047 83.772 78.0417 83.772 78.3281C83.772 78.6094 83.6756 78.8438 83.4829 79.0312C83.2902 79.2188 83.0272 79.3125 82.6938 79.3125C82.3553 79.3125 82.0897 79.2188 81.897 79.0312C81.7095 78.8438 81.6157 78.6094 81.6157 78.3281ZM87.561 82.3516V89H85.6782V80.5469H87.4516L87.561 82.3516ZM87.2251 84.4609L86.6157 84.4531C86.6209 83.8542 86.7042 83.3047 86.8657 82.8047C87.0324 82.3047 87.2615 81.875 87.5532 81.5156C87.8501 81.1562 88.2042 80.8802 88.6157 80.6875C89.0272 80.4896 89.4855 80.3906 89.9907 80.3906C90.397 80.3906 90.7641 80.4479 91.0923 80.5625C91.4256 80.6719 91.7095 80.8516 91.9438 81.1016C92.1834 81.3516 92.3657 81.6771 92.4907 82.0781C92.6157 82.474 92.6782 82.9609 92.6782 83.5391V89H90.7876V83.5312C90.7876 83.125 90.7277 82.8047 90.6079 82.5703C90.4933 82.3307 90.324 82.1615 90.1001 82.0625C89.8813 81.9583 89.6079 81.9062 89.2798 81.9062C88.9568 81.9062 88.6678 81.974 88.4126 82.1094C88.1574 82.2448 87.9412 82.4297 87.7641 82.6641C87.5923 82.8984 87.4595 83.1693 87.3657 83.4766C87.272 83.7839 87.2251 84.112 87.2251 84.4609ZM100.014 80.5469H101.725V88.7656C101.725 89.526 101.564 90.1719 101.241 90.7031C100.918 91.2344 100.467 91.638 99.8891 91.9141C99.311 92.1953 98.6417 92.3359 97.8813 92.3359C97.5584 92.3359 97.199 92.2891 96.8032 92.1953C96.4126 92.1016 96.0324 91.9505 95.6626 91.7422C95.298 91.5391 94.9933 91.2708 94.7485 90.9375L95.6313 89.8281C95.9334 90.1875 96.2667 90.4505 96.6313 90.6172C96.9959 90.7839 97.3787 90.8672 97.7798 90.8672C98.2121 90.8672 98.5792 90.7865 98.8813 90.625C99.1886 90.4688 99.4256 90.237 99.5923 89.9297C99.7589 89.6224 99.8423 89.2474 99.8423 88.8047V82.4609L100.014 80.5469ZM94.272 84.8672V84.7031C94.272 84.0625 94.3501 83.4792 94.5063 82.9531C94.6626 82.4219 94.8865 81.9661 95.1782 81.5859C95.4699 81.2005 95.824 80.9062 96.2407 80.7031C96.6574 80.4948 97.1287 80.3906 97.6548 80.3906C98.2016 80.3906 98.6678 80.4896 99.0532 80.6875C99.4438 80.8854 99.7694 81.1693 100.03 81.5391C100.29 81.9036 100.493 82.3411 100.639 82.8516C100.79 83.3568 100.902 83.9193 100.975 84.5391V85.0625C100.907 85.6667 100.793 86.2188 100.631 86.7188C100.47 87.2188 100.256 87.651 99.9907 88.0156C99.7251 88.3802 99.397 88.6615 99.0063 88.8594C98.6209 89.0573 98.1652 89.1562 97.6391 89.1562C97.1235 89.1562 96.6574 89.0495 96.2407 88.8359C95.8292 88.6224 95.4751 88.3229 95.1782 87.9375C94.8865 87.5521 94.6626 87.099 94.5063 86.5781C94.3501 86.0521 94.272 85.4818 94.272 84.8672ZM96.1548 84.7031V84.8672C96.1548 85.2526 96.1912 85.612 96.2641 85.9453C96.3423 86.2786 96.4595 86.5729 96.6157 86.8281C96.7772 87.0781 96.9803 87.276 97.2251 87.4219C97.4751 87.5625 97.7694 87.6328 98.1079 87.6328C98.5506 87.6328 98.9126 87.5391 99.1938 87.3516C99.4803 87.1641 99.699 86.9115 99.8501 86.5938C100.006 86.2708 100.116 85.9115 100.178 85.5156V84.1016C100.147 83.7943 100.082 83.5078 99.9829 83.2422C99.8891 82.9766 99.7615 82.7448 99.6001 82.5469C99.4386 82.3438 99.2355 82.1875 98.9907 82.0781C98.7459 81.9635 98.4569 81.9062 98.1235 81.9062C97.785 81.9062 97.4907 81.9792 97.2407 82.125C96.9907 82.2708 96.785 82.4714 96.6235 82.7266C96.4673 82.9818 96.3501 83.2786 96.272 83.6172C96.1938 83.9557 96.1548 84.3177 96.1548 84.7031Z" fill="#212121"/>
<defs>
<clipPath id="clip0_2_2366">
<rect width="20" height="20" fill="white" transform="translate(57.5 22)"/>
</clipPath>
<clipPath id="clip1_2_2366">
<rect width="20" height="20" fill="white" transform="translate(57.5 22)"/>
</clipPath>
</defs>
</svg>
