<svg width="135" height="112" viewBox="0 0 135 112" fill="none" xmlns="http://www.w3.org/2000/svg">
<rect width="135" height="112" rx="8" fill="#97CAD1" fill-opacity="0.08"/>
<g clip-path="url(#clip0_2_2372)">
<g clip-path="url(#clip1_2_2372)">
<g clip-path="url(#clip2_2_2372)">
<path fill-rule="evenodd" clip-rule="evenodd" d="M72.936 31.4923H74.1463C75.3827 31.4923 76.3529 32.5527 76.2434 33.7843L75.5905 41.1172C75.5542 41.5245 75.2131 41.8367 74.8041 41.8367C74.3405 41.8367 73.9766 41.439 74.0178 40.9772L74.6706 33.6443C74.698 33.3364 74.4555 33.0712 74.1463 33.0712H59.801C59.4919 33.0712 59.2493 33.3364 59.2768 33.6443L59.9296 40.9772C59.9707 41.439 59.6069 41.8367 59.1432 41.8367C58.7343 41.8367 58.3931 41.5245 58.3568 41.1172L57.704 33.7843C57.5944 32.5527 58.5646 31.4923 59.801 31.4923H60.9092C60.8038 30.7406 60.7504 30.0317 60.7504 29.4075C60.7504 28.9918 60.7741 28.5843 60.821 28.1878H58.2895C57.8535 28.1878 57.5 27.8343 57.5 27.3983C57.5 26.9623 57.8535 26.6088 58.2895 26.6088H60.9211C60.9971 26.6088 61.0706 26.6196 61.1401 26.6396C61.932 24.0229 63.9129 22.1826 66.9226 22.1826C69.9453 22.1826 71.9303 24.0387 72.7153 26.6734C72.8113 26.6318 72.9172 26.6088 73.0284 26.6088H75.66C76.096 26.6088 76.4495 26.9623 76.4495 27.3983C76.4495 27.8343 76.096 28.1878 75.66 28.1878H73.0284L73.0242 28.1878C73.0712 28.5843 73.0948 28.9918 73.0948 29.4075C73.0948 30.0317 73.0415 30.7406 72.936 31.4923ZM71.3403 31.4923C71.4567 30.7312 71.5159 30.018 71.5159 29.4075C71.5159 27.6824 71.0427 26.2499 70.2714 25.2841C69.5309 24.3572 68.4445 23.7616 66.9226 23.7616C65.4007 23.7616 64.3143 24.3572 63.5739 25.2841C62.8025 26.2499 62.3294 27.6824 62.3294 29.4075C62.3294 30.018 62.3885 30.7312 62.505 31.4923H71.3403ZM65.7787 28.1644C65.7787 28.4551 65.543 28.6908 65.2524 28.6908C64.9617 28.6908 64.7261 28.4551 64.7261 28.1644C64.7261 27.8738 64.9617 27.6381 65.2524 27.6381C65.543 27.6381 65.7787 27.8738 65.7787 28.1644ZM66.8313 28.1644C66.8313 29.0365 66.1244 29.7434 65.2524 29.7434C64.3803 29.7434 63.6734 29.0365 63.6734 28.1644C63.6734 27.2924 64.3803 26.5855 65.2524 26.5855C66.1244 26.5855 66.8313 27.2924 66.8313 28.1644ZM68.6971 28.6908C68.9877 28.6908 69.2234 28.4551 69.2234 28.1644C69.2234 27.8738 68.9877 27.6381 68.6971 27.6381C68.4064 27.6381 68.1707 27.8738 68.1707 28.1644C68.1707 28.4551 68.4064 28.6908 68.6971 28.6908ZM68.6971 29.7434C69.5691 29.7434 70.276 29.0365 70.276 28.1644C70.276 27.2924 69.5691 26.5855 68.6971 26.5855C67.825 26.5855 67.1181 27.2924 67.1181 28.1644C67.1181 29.0365 67.825 29.7434 68.6971 29.7434ZM62.8829 37.2633V36.2107H66.0408V37.2633H62.8829ZM61.304 35.158C61.304 34.8674 61.5396 34.6317 61.8303 34.6317H67.0934C67.3841 34.6317 67.6198 34.8674 67.6198 35.158V38.3159C67.6198 38.6066 67.3841 38.8423 67.0934 38.8423H61.8303C61.5396 38.8423 61.304 38.6066 61.304 38.3159V35.158ZM68.4328 35.5988C68.4328 35.1628 68.7863 34.8093 69.2223 34.8093H71.8539C72.2899 34.8093 72.6434 35.1628 72.6434 35.5988C72.6434 36.0348 72.2899 36.3883 71.8539 36.3883H69.2223C68.7863 36.3883 68.4328 36.0348 68.4328 35.5988ZM69.2223 36.9598C68.7863 36.9598 68.4328 37.3133 68.4328 37.7493C68.4328 38.1853 68.7863 38.5388 69.2223 38.5388H71.8539C72.2899 38.5388 72.6434 38.1853 72.6434 37.7493C72.6434 37.3133 72.2899 36.9598 71.8539 36.9598H69.2223Z" fill="#7A1D47"/>
</g>
</g>
</g>
<path d="M31.9808 53.625V65H30.0355V53.625H31.9808ZM35.5511 53.625V55.1875H26.4964V53.625H35.5511ZM39.8402 65.1562C39.2152 65.1562 38.6501 65.0547 38.1449 64.8516C37.6449 64.6432 37.2178 64.3542 36.8636 63.9844C36.5147 63.6146 36.2464 63.1797 36.0589 62.6797C35.8714 62.1797 35.7777 61.6406 35.7777 61.0625V60.75C35.7777 60.0885 35.874 59.4896 36.0668 58.9531C36.2595 58.4167 36.5277 57.9583 36.8714 57.5781C37.2152 57.1927 37.6214 56.8984 38.0902 56.6953C38.5589 56.4922 39.0668 56.3906 39.6136 56.3906C40.2178 56.3906 40.7464 56.4922 41.1996 56.6953C41.6527 56.8984 42.0277 57.1849 42.3246 57.5547C42.6267 57.9193 42.8506 58.3542 42.9964 58.8594C43.1475 59.3646 43.223 59.9219 43.223 60.5312V61.3359H36.6918V59.9844H41.3636V59.8359C41.3532 59.4974 41.2855 59.1797 41.1605 58.8828C41.0407 58.5859 40.8558 58.3464 40.6058 58.1641C40.3558 57.9818 40.0225 57.8906 39.6058 57.8906C39.2933 57.8906 39.0147 57.9583 38.7699 58.0938C38.5303 58.224 38.3298 58.4141 38.1683 58.6641C38.0069 58.9141 37.8819 59.2161 37.7933 59.5703C37.71 59.9193 37.6683 60.3125 37.6683 60.75V61.0625C37.6683 61.4323 37.7178 61.776 37.8168 62.0938C37.9209 62.4062 38.072 62.6797 38.2699 62.9141C38.4678 63.1484 38.7074 63.3333 38.9886 63.4688C39.2699 63.599 39.5902 63.6641 39.9496 63.6641C40.4027 63.6641 40.8063 63.5729 41.1605 63.3906C41.5147 63.2083 41.822 62.9505 42.0824 62.6172L43.0746 63.5781C42.8923 63.8438 42.6553 64.099 42.3636 64.3438C42.072 64.5833 41.7152 64.7786 41.2933 64.9297C40.8767 65.0807 40.3923 65.1562 39.8402 65.1562ZM48.1449 63.6562C48.4522 63.6562 48.7282 63.5964 48.973 63.4766C49.223 63.3516 49.4235 63.1797 49.5746 62.9609C49.7308 62.7422 49.8168 62.4896 49.8324 62.2031H51.6058C51.5954 62.75 51.4339 63.2474 51.1214 63.6953C50.8089 64.1432 50.3949 64.5 49.8793 64.7656C49.3636 65.026 48.7933 65.1562 48.1683 65.1562C47.5225 65.1562 46.96 65.0469 46.4808 64.8281C46.0017 64.6042 45.6032 64.2969 45.2855 63.9062C44.9678 63.5156 44.7282 63.0651 44.5668 62.5547C44.4105 62.0443 44.3324 61.4974 44.3324 60.9141V60.6406C44.3324 60.0573 44.4105 59.5104 44.5668 59C44.7282 58.4844 44.9678 58.0312 45.2855 57.6406C45.6032 57.25 46.0017 56.9453 46.4808 56.7266C46.96 56.5026 47.5199 56.3906 48.1605 56.3906C48.8376 56.3906 49.4313 56.526 49.9418 56.7969C50.4522 57.0625 50.8532 57.4349 51.1449 57.9141C51.4418 58.388 51.5954 58.9401 51.6058 59.5703H49.8324C49.8168 59.2578 49.7386 58.9766 49.598 58.7266C49.4626 58.4714 49.2699 58.2682 49.0199 58.1172C48.7751 57.9661 48.4808 57.8906 48.1371 57.8906C47.7569 57.8906 47.4418 57.9688 47.1918 58.125C46.9418 58.276 46.7464 58.4844 46.6058 58.75C46.4652 59.0104 46.3636 59.3047 46.3011 59.6328C46.2438 59.9557 46.2152 60.2917 46.2152 60.6406V60.9141C46.2152 61.263 46.2438 61.6016 46.3011 61.9297C46.3584 62.2578 46.4574 62.5521 46.598 62.8125C46.7438 63.0677 46.9418 63.2734 47.1918 63.4297C47.4418 63.5807 47.7595 63.6562 48.1449 63.6562ZM54.9105 53V65H53.0355V53H54.9105ZM54.5824 60.4609L53.973 60.4531C53.9782 59.8698 54.0589 59.3307 54.2152 58.8359C54.3767 58.3411 54.6006 57.9115 54.8871 57.5469C55.1787 57.1771 55.5277 56.8932 55.9339 56.6953C56.3402 56.4922 56.7907 56.3906 57.2855 56.3906C57.7022 56.3906 58.0772 56.4479 58.4105 56.5625C58.749 56.6771 59.0407 56.862 59.2855 57.1172C59.5303 57.3672 59.7152 57.6953 59.8402 58.1016C59.9704 58.5026 60.0355 58.9922 60.0355 59.5703V65H58.1449V59.5547C58.1449 59.1484 58.085 58.8255 57.9652 58.5859C57.8506 58.3464 57.6813 58.1745 57.4574 58.0703C57.2334 57.9609 56.96 57.9062 56.6371 57.9062C56.2985 57.9062 55.999 57.974 55.7386 58.1094C55.4834 58.2448 55.2699 58.4297 55.098 58.6641C54.9261 58.8984 54.7959 59.1693 54.7074 59.4766C54.624 59.7839 54.5824 60.112 54.5824 60.4609ZM63.8089 58.3516V65H61.9261V56.5469H63.6996L63.8089 58.3516ZM63.473 60.4609L62.8636 60.4531C62.8688 59.8542 62.9522 59.3047 63.1136 58.8047C63.2803 58.3047 63.5095 57.875 63.8011 57.5156C64.098 57.1562 64.4522 56.8802 64.8636 56.6875C65.2751 56.4896 65.7334 56.3906 66.2386 56.3906C66.6449 56.3906 67.0121 56.4479 67.3402 56.5625C67.6735 56.6719 67.9574 56.8516 68.1918 57.1016C68.4313 57.3516 68.6136 57.6771 68.7386 58.0781C68.8636 58.474 68.9261 58.9609 68.9261 59.5391V65H67.0355V59.5312C67.0355 59.125 66.9756 58.8047 66.8558 58.5703C66.7412 58.3307 66.572 58.1615 66.348 58.0625C66.1293 57.9583 65.8558 57.9062 65.5277 57.9062C65.2048 57.9062 64.9157 57.974 64.6605 58.1094C64.4053 58.2448 64.1892 58.4297 64.0121 58.6641C63.8402 58.8984 63.7074 59.1693 63.6136 59.4766C63.5199 59.7839 63.473 60.112 63.473 60.4609ZM70.4886 60.8672V60.6875C70.4886 60.0781 70.5772 59.513 70.7543 58.9922C70.9313 58.4661 71.1865 58.0104 71.5199 57.625C71.8584 57.2344 72.2699 56.9323 72.7543 56.7188C73.2438 56.5 73.7959 56.3906 74.4105 56.3906C75.0303 56.3906 75.5824 56.5 76.0668 56.7188C76.5563 56.9323 76.9704 57.2344 77.3089 57.625C77.6475 58.0104 77.9053 58.4661 78.0824 58.9922C78.2595 59.513 78.348 60.0781 78.348 60.6875V60.8672C78.348 61.4766 78.2595 62.0417 78.0824 62.5625C77.9053 63.0833 77.6475 63.5391 77.3089 63.9297C76.9704 64.3151 76.5589 64.6172 76.0746 64.8359C75.5902 65.0495 75.0407 65.1562 74.4261 65.1562C73.8063 65.1562 73.2517 65.0495 72.7621 64.8359C72.2777 64.6172 71.8662 64.3151 71.5277 63.9297C71.1892 63.5391 70.9313 63.0833 70.7543 62.5625C70.5772 62.0417 70.4886 61.4766 70.4886 60.8672ZM72.3714 60.6875V60.8672C72.3714 61.2474 72.4105 61.6068 72.4886 61.9453C72.5668 62.2839 72.6892 62.5807 72.8558 62.8359C73.0225 63.0911 73.236 63.2917 73.4964 63.4375C73.7569 63.5833 74.0668 63.6562 74.4261 63.6562C74.7751 63.6562 75.0772 63.5833 75.3324 63.4375C75.5928 63.2917 75.8063 63.0911 75.973 62.8359C76.1397 62.5807 76.2621 62.2839 76.3402 61.9453C76.4235 61.6068 76.4652 61.2474 76.4652 60.8672V60.6875C76.4652 60.3125 76.4235 59.9583 76.3402 59.625C76.2621 59.2865 76.1371 58.987 75.9652 58.7266C75.7985 58.4661 75.585 58.263 75.3246 58.1172C75.0694 57.9661 74.7647 57.8906 74.4105 57.8906C74.0563 57.8906 73.749 57.9661 73.4886 58.1172C73.2334 58.263 73.0225 58.4661 72.8558 58.7266C72.6892 58.987 72.5668 59.2865 72.4886 59.625C72.4105 59.9583 72.3714 60.3125 72.3714 60.6875ZM81.9418 53V65H80.0511V53H81.9418ZM83.6449 60.8672V60.6875C83.6449 60.0781 83.7334 59.513 83.9105 58.9922C84.0876 58.4661 84.3428 58.0104 84.6761 57.625C85.0147 57.2344 85.4261 56.9323 85.9105 56.7188C86.4001 56.5 86.9522 56.3906 87.5668 56.3906C88.1865 56.3906 88.7386 56.5 89.223 56.7188C89.7126 56.9323 90.1267 57.2344 90.4652 57.625C90.8037 58.0104 91.0615 58.4661 91.2386 58.9922C91.4157 59.513 91.5043 60.0781 91.5043 60.6875V60.8672C91.5043 61.4766 91.4157 62.0417 91.2386 62.5625C91.0615 63.0833 90.8037 63.5391 90.4652 63.9297C90.1267 64.3151 89.7152 64.6172 89.2308 64.8359C88.7464 65.0495 88.197 65.1562 87.5824 65.1562C86.9626 65.1562 86.4079 65.0495 85.9183 64.8359C85.4339 64.6172 85.0225 64.3151 84.6839 63.9297C84.3454 63.5391 84.0876 63.0833 83.9105 62.5625C83.7334 62.0417 83.6449 61.4766 83.6449 60.8672ZM85.5277 60.6875V60.8672C85.5277 61.2474 85.5668 61.6068 85.6449 61.9453C85.723 62.2839 85.8454 62.5807 86.0121 62.8359C86.1787 63.0911 86.3923 63.2917 86.6527 63.4375C86.9131 63.5833 87.223 63.6562 87.5824 63.6562C87.9313 63.6562 88.2334 63.5833 88.4886 63.4375C88.749 63.2917 88.9626 63.0911 89.1293 62.8359C89.2959 62.5807 89.4183 62.2839 89.4964 61.9453C89.5798 61.6068 89.6214 61.2474 89.6214 60.8672V60.6875C89.6214 60.3125 89.5798 59.9583 89.4964 59.625C89.4183 59.2865 89.2933 58.987 89.1214 58.7266C88.9548 58.4661 88.7412 58.263 88.4808 58.1172C88.2256 57.9661 87.9209 57.8906 87.5668 57.8906C87.2126 57.8906 86.9053 57.9661 86.6449 58.1172C86.3897 58.263 86.1787 58.4661 86.0121 58.7266C85.8454 58.987 85.723 59.2865 85.6449 59.625C85.5668 59.9583 85.5277 60.3125 85.5277 60.6875ZM98.4964 56.5469H100.207V64.7656C100.207 65.526 100.046 66.1719 99.723 66.7031C99.4001 67.2344 98.9496 67.638 98.3714 67.9141C97.7933 68.1953 97.124 68.3359 96.3636 68.3359C96.0407 68.3359 95.6813 68.2891 95.2855 68.1953C94.8949 68.1016 94.5147 67.9505 94.1449 67.7422C93.7803 67.5391 93.4756 67.2708 93.2308 66.9375L94.1136 65.8281C94.4157 66.1875 94.749 66.4505 95.1136 66.6172C95.4782 66.7839 95.861 66.8672 96.2621 66.8672C96.6944 66.8672 97.0615 66.7865 97.3636 66.625C97.6709 66.4688 97.9079 66.237 98.0746 65.9297C98.2412 65.6224 98.3246 65.2474 98.3246 64.8047V58.4609L98.4964 56.5469ZM92.7543 60.8672V60.7031C92.7543 60.0625 92.8324 59.4792 92.9886 58.9531C93.1449 58.4219 93.3688 57.9661 93.6605 57.5859C93.9522 57.2005 94.3063 56.9062 94.723 56.7031C95.1397 56.4948 95.611 56.3906 96.1371 56.3906C96.6839 56.3906 97.1501 56.4896 97.5355 56.6875C97.9261 56.8854 98.2517 57.1693 98.5121 57.5391C98.7725 57.9036 98.9756 58.3411 99.1214 58.8516C99.2725 59.3568 99.3845 59.9193 99.4574 60.5391V61.0625C99.3897 61.6667 99.2751 62.2188 99.1136 62.7188C98.9522 63.2188 98.7386 63.651 98.473 64.0156C98.2074 64.3802 97.8793 64.6615 97.4886 64.8594C97.1032 65.0573 96.6475 65.1562 96.1214 65.1562C95.6058 65.1562 95.1397 65.0495 94.723 64.8359C94.3115 64.6224 93.9574 64.3229 93.6605 63.9375C93.3688 63.5521 93.1449 63.099 92.9886 62.5781C92.8324 62.0521 92.7543 61.4818 92.7543 60.8672ZM94.6371 60.7031V60.8672C94.6371 61.2526 94.6735 61.612 94.7464 61.9453C94.8246 62.2786 94.9418 62.5729 95.098 62.8281C95.2595 63.0781 95.4626 63.276 95.7074 63.4219C95.9574 63.5625 96.2517 63.6328 96.5902 63.6328C97.0329 63.6328 97.3949 63.5391 97.6761 63.3516C97.9626 63.1641 98.1813 62.9115 98.3324 62.5938C98.4886 62.2708 98.598 61.9115 98.6605 61.5156V60.1016C98.6293 59.7943 98.5642 59.5078 98.4652 59.2422C98.3714 58.9766 98.2438 58.7448 98.0824 58.5469C97.9209 58.3438 97.7178 58.1875 97.473 58.0781C97.2282 57.9635 96.9392 57.9062 96.6058 57.9062C96.2673 57.9062 95.973 57.9792 95.723 58.125C95.473 58.2708 95.2673 58.4714 95.1058 58.7266C94.9496 58.9818 94.8324 59.2786 94.7543 59.6172C94.6761 59.9557 94.6371 60.3177 94.6371 60.7031ZM104.614 64.0781L106.911 56.5469H108.926L105.536 66.2891C105.457 66.4974 105.356 66.724 105.231 66.9688C105.106 67.2135 104.942 67.4453 104.739 67.6641C104.541 67.888 104.293 68.0677 103.996 68.2031C103.7 68.3438 103.34 68.4141 102.918 68.4141C102.752 68.4141 102.59 68.3984 102.434 68.3672C102.283 68.3411 102.14 68.3125 102.004 68.2812L101.996 66.8438C102.049 66.849 102.111 66.8542 102.184 66.8594C102.262 66.8646 102.325 66.8672 102.371 66.8672C102.684 66.8672 102.944 66.8281 103.153 66.75C103.361 66.6771 103.53 66.5573 103.661 66.3906C103.796 66.224 103.911 66 104.004 65.7188L104.614 64.0781ZM103.317 56.5469L105.325 62.875L105.661 64.8594L104.356 65.1953L101.286 56.5469H103.317Z" fill="#212121"/>
<defs>
<clipPath id="clip0_2_2372">
<rect width="20" height="20" fill="white" transform="translate(57.5 22)"/>
</clipPath>
<clipPath id="clip1_2_2372">
<rect width="20" height="20" fill="white" transform="translate(57.5 22)"/>
</clipPath>
<clipPath id="clip2_2_2372">
<rect width="20" height="20" fill="white" transform="translate(57.5 22)"/>
</clipPath>
</defs>
</svg>
